<?xml version="1.0" encoding="utf-8"?>
<!-- Generator: Adobe Illustrator 19.0.0, SVG Export Plug-In . SVG Version: 6.00 Build 0)  -->
<svg version="1.1" id="Layer_1" xmlns="http://www.w3.org/2000/svg" xmlns:xlink="http://www.w3.org/1999/xlink" x="0px" y="0px"
	 viewBox="62 -63 250 250" style="enable-background:new 62 -63 250 250;" xml:space="preserve">
<style type="text/css">
	.st0{fill:#C2D82E;}
	.st1{fill:#8EC740;}
	.st2{fill:#8EC740;stroke:#000000;stroke-width:4;stroke-miterlimit:10;}
</style>
<g id="XMLID_85_">
	<path id="XMLID_20_" class="st0" d="M195.8,83.2c-1.3,0-2.7,0-4.1-0.1l-1.9-0.1V47.7l2.1,0.1c0.8,0,1.6,0,2.3,0l0,0
		c14,0,25.1-4.8,33.1-14.2c22.4-26.5,13.7-81.2,13.6-81.7l-0.4-2.4l2.4,0.1c8.4,0.3,16.1,3.8,21.8,10c5.7,6.1,8.6,14,8.4,22.3
		c0.3,3.4,3.6,50.6-23,79.6C237,75.9,218.7,83.2,195.8,83.2L195.8,83.2z"/>
	<path id="XMLID_17_" d="M242.9-48.4c16.2,0.6,28.8,14.2,28.2,30.3c0,0,8.6,99.2-75.3,99.2c-1.3,0-2.6,0-4-0.1V49.7
		c0.8,0,1.6,0,2.4,0C259.1,49.8,242.9-48.4,242.9-48.4L242.9-48.4 M241.1-52.5l-1.3,1.5l-1.2,1.4l0.3,1.8c0.1,0.6,2.2,13.9,1.6,30.7
		C240-1.9,236.9,19,225.7,32.3c-7.6,8.9-18.2,13.5-31.6,13.5c-0.8,0-1.5,0-2.3,0l-4.1-0.2v4.1V81v3.9l3.9,0.1
		c1.4,0.1,2.8,0.1,4.1,0.1c23.5,0,42.3-7.5,55.8-22.3c11.5-12.5,19.2-30.5,22.2-52.2c2.2-15.1,1.4-26.9,1.3-28.8
		c0.5-18.2-13.8-33.6-32.1-34.2L241.1-52.5L241.1-52.5z"/>
</g>
<g id="XMLID_6_">
	<path id="XMLID_25_" class="st1" d="M159.4,51.8V12.1h34.3c13.6-0.6,16-9.1,16.2-14.2l0.7-18.1c0.6-16.9,14.3-30.2,31.3-30.2
		c0.4,0,0.8,0,1.2,0l1.6,0.1l0.3,1.6c0.1,0.6,2.3,14.2,1.7,31.5c-0.8,23.4-6.1,41.2-15.9,53c-8.1,9.8-19.2,15.2-33,15.9v0.1h-2H195
		L159.4,51.8z"/>
	<path id="XMLID_22_" d="M241.8-48.4c0.4,0,0.7,0,1.1,0c0,0,16,96.7-47.2,98.2l0,0h-0.6c-0.1,0-0.1,0-0.2,0c-0.1,0-0.3,0-0.4,0
		c0,0,0,0-0.1,0h-33V14.1h32.3c4.9-0.2,17.7-2.1,18.2-16.1l0.7-18.1C213.1-36,226.1-48.4,241.8-48.4 M241.8-52.4
		c-18,0-32.6,14.1-33.3,32.1l-0.7,18.1c-0.2,4.6-1.9,7.9-5.4,9.9c-3.1,1.8-6.8,2.2-8.8,2.3h-32.2h-4v4v35.8v4h4h33h0.1h0.2h0.2h0.2
		l0,0h0.6h4v-0.2c13.5-1.2,24.4-6.7,32.6-16.5c23.8-28.7,15-83.8,14.6-86.1l-0.5-3.2l-3.3-0.1C242.6-52.4,242.2-52.4,241.8-52.4
		L241.8-52.4z"/>
</g>
<path id="XMLID_1_" class="st2" d="M189.7,81.2h-30.3v30h30.4v-0.1c0.3,0,19.5-0.5,19.5,16.8V146c0,16.2,13.1,29.3,29.3,29.3
	C238.6,175.4,257.6,81.1,189.7,81.2"/>
<g id="XMLID_5_">
	<path id="XMLID_31_" class="st0" d="M238.6,175.2l0.5-2.4c0-0.1,2.4-12.3,2.3-27.6c-0.2-13.9-2.6-33.2-13.1-46.5
		c-7.8-9.9-19.3-15.1-33.9-15.7h-0.6h-34.4V47.7h30.4h2h0.6h3.3v0.1c23.6,0.8,42.2,8.6,55.2,23.4c25.2,28.4,21.3,71.9,21,74.9
		c-0.1,16.8-13,29-30.9,29L238.6,175.2L238.6,175.2z"/>
	<path id="XMLID_28_" d="M191.8,49.8c0.2,0,0.4,0,0.6,0h1.3l0,0c86.2,1.4,76.3,96.3,76.3,96.3c0,16.2-12.7,27.1-28.9,27.1
		c0,0,18.2-90.3-47.3-92.1l0,0h-32.4V49.8H191.8L191.8,49.8 M191.8,45.8h-4l0,0h-26.4h-4v4v31.3v4h4h32.3h0.8
		c13.9,0.6,24.7,5.6,32.1,14.9c19.7,24.8,10.5,71.9,10.4,72.4l-1,4.8h4.9c9,0,17.2-3,23.2-8.5c6.2-5.7,9.6-13.6,9.7-22.4
		c0.4-3.9,4-47.6-21.5-76.3c-13.1-14.8-31.5-22.8-54.7-24v-0.1h-4h-1.3h-0.2C192,45.8,191.9,45.8,191.8,45.8L191.8,45.8z"/>
</g>
<g id="XMLID_88_">
	<path id="XMLID_40_" class="st0" d="M132.9,174.2V-50h2c16.8,0,30.5,13.7,30.5,30.5v163.2c0,16.8-13.7,30.5-30.5,30.5L132.9,174.2
		L132.9,174.2z"/>
	<path id="XMLID_37_" d="M134.9-48c15.8,0,28.5,12.8,28.5,28.5v163.2c0,15.8-12.8,28.5-28.5,28.5l0,0V-48 M134.9-52h-4v4v220.2v4h4
		c17.9,0,32.5-14.6,32.5-32.5V-19.5C167.4-37.4,152.8-52,134.9-52L134.9-52z"/>
</g>
<g id="XMLID_87_">
	<path id="XMLID_35_" class="st1" d="M132.9,174.2c-16.8,0-30.5-13.7-30.5-30.5V-19.5C102.3-36.3,116-50,132.9-50h2v224.2H132.9z"/>
	<path id="XMLID_32_" d="M132.9-48v220.2l0,0c-15.8,0-28.5-12.8-28.5-28.5V-19.5C104.3-35.2,117.1-48,132.9-48 M136.9-52h-4
		c-17.9,0-32.5,14.6-32.5,32.5v163.2c0,17.9,14.6,32.5,32.5,32.5h4v-4V-48V-52L136.9-52z"/>
</g>
</svg>
