<svg xmlns="http://www.w3.org/2000/svg" xmlns:xlink="http://www.w3.org/1999/xlink" id="Layer_1" x="0" y="0" version="1.1" viewBox="0 0 1920 180" xml:space="preserve" style="enable-background:new 0 0 1920 180"><style type="text/css">.st0{fill:#89bf40}.st1{fill:#d2d2d2}</style><switch><g><g id="XMLID_22_"><g id="XMLID_2_"><g id="XMLID_1841_"><path id="XMLID_1846_" d="M106.4,111.5c3.4,0.9,6.6,1.8,10.1,1.8c5.7,0,11.3-0.1,17-0.1 c10.4-0.1,20.8-0.1,31.3-0.2c-0.8-0.8-1.7-1.7-2.5-2.5c-0.7,5.8-1.9,11.8-2,17.7c0,0.7,0,1.2,0,1.9c0.1,1,0.8,4.2,0.8,2.3 c-0.1,1.8-0.6,3.7-0.9,5.5c-2,12.2-3.9,24.3-5.9,36.5c0.8-0.6,1.6-1.2,2.4-1.8c-13.8,0-27.6,0-41.4,0c0.2,1.6,0.4,3.3,0.7,4.9 c0.6-0.3,1.2-0.5,1.9-0.8c1.4-0.6,2-1.6,1.7-3.1c-1.7-11.5-3.3-22.9-5-34.4c-1.5-10.3-2.6-20.7-5.1-30.8 c-0.8-3.1-5.6-1.8-4.8,1.3c2.5,10.1,3.6,20.5,5.1,30.8c1.7,11.5,3.3,22.9,5,34.4c0.6-1,1.2-2.1,1.7-3.1 c-0.6,0.3-1.2,0.5-1.9,0.8c-2.4,1-2.4,4.9,0.7,4.9c13.8,0,27.6,0,41.4,0c1,0,2.2-0.8,2.4-1.8c2-12.3,3.9-24.6,5.9-36.9 c0.3-1.7,0.8-3.5,0.8-5.3c0.1-1.9-0.7-4.3-0.7-5.3c0-5.9,1.4-12,2-17.9c0.2-1.3-1.3-2.5-2.5-2.5c-10.1,0.1-20.2,0.1-30.3,0.2 c-5.7,0-11.3,0.1-17,0.1c-4,0-5.2-0.5-9.7-1.6C104.6,105.9,103.3,110.7,106.4,111.5z" class="st0"/></g></g><g id="XMLID_3_"><g id="XMLID_1835_"><path id="XMLID_1839_" d="M123.7,110.1c-3.8-10.5-7-21.2-9.9-31.9c-4.6-17.1-9.8-36-7.9-53.9 c0.5-4.3,3.5-16.6,10.1-14.3c6.2,2.2,9.1,14.1,10.7,19.6c3.5,11.8,4.2,24.2,5.5,36.3c1.6,14.9,3.2,29.9,4.8,44.8 c0.8-0.8,1.7-1.7,2.5-2.5c-6.1,0-12.1,0-18.2,0c-3.2,0-3.2,5,0,5c6.1,0,12.1,0,18.2,0c1.2,0,2.6-1.1,2.5-2.5 c-1.5-14.4-3-28.8-4.6-43.3c-1.5-13.5-2.2-27.4-6.2-40.5c-2.1-6.9-5.1-16.5-11.6-20.7c-6.5-4.2-13,1.4-15.9,7.2 c-3.5,6.8-3.3,15.4-2.8,22.8c0.7,10.2,2.6,20.3,4.9,30.3c3.5,15.1,7.9,30.2,13.1,44.8C120,114.5,124.8,113.2,123.7,110.1z" class="st0"/></g></g><g id="XMLID_4_"><g id="XMLID_1828_"><path id="XMLID_1832_" d="M157.8,109.7c3.3-11.1,6.2-22.4,8.6-33.7c3.8-17.3,8-36.3,5.8-54.1 c-0.8-6.6-3.1-12.9-9.1-16.5c-7.9-4.8-14.4,1.7-17.7,8.6c-6.8,14.1-6.3,30.9-7.4,46.3c-0.7,10.3-1.4,20.6-1.7,30.9 c-0.2,5.5-1.7,14.1,1,19.3c0.4,0.8,1.3,1.2,2.2,1.2c5.3,0,10.7,0,16,0c3.2,0,3.2-5,0-5c-5.3,0-10.7,0-16,0 c0.7,0.4,1.4,0.8,2.2,1.2c-1.4-2.7-0.5-10.7-0.4-14.4c0.2-8.4,0.7-16.7,1.2-25c0.8-12.4,0.8-25.8,3.1-38 c1-5.4,4.8-24.3,13.7-21.5c6.5,2.1,8,10.3,8.4,16.1c1.2,16.4-2.3,33.3-5.8,49.2c-2.5,11.5-5.4,23-8.8,34.2 C152,111.5,156.9,112.8,157.8,109.7z" class="st0"/></g></g><g id="XMLID_5_"><g id="XMLID_1821_"><path id="XMLID_1825_" d="M159.6,49.4c7.4,1.7,14.8,3.4,22.2,5.1c3.1,0.7,4.5-4.1,1.3-4.8 c-7.4-1.7-14.8-3.4-22.2-5.1C157.8,43.9,156.5,48.7,159.6,49.4L159.6,49.4z" class="st0"/></g></g><g id="XMLID_6_"><g id="XMLID_1814_"><path id="XMLID_1819_" d="M159.1,37.8c7.5-2.3,15.1-4.7,22.6-7c3.1-0.9,1.8-5.8-1.3-4.8c-7.5,2.3-15.1,4.7-22.6,7 C154.7,33.9,156,38.7,159.1,37.8L159.1,37.8z" class="st0"/></g></g><g id="XMLID_7_"><g id="XMLID_1807_"><path id="XMLID_1812_" d="M143.9,3.4c2.1,7,4.2,14,6.3,21c0.9,3.1,5.7,1.8,4.8-1.3c-2.1-7-4.2-14-6.3-21 C147.8-1,142.9,0.3,143.9,3.4L143.9,3.4z" class="st0"/></g></g><g id="XMLID_9_"><g id="XMLID_1800_"><path id="XMLID_1805_" d="M123.5,36.6c2.1-3.2,4.1-6.4,6.2-9.5c1.5-2.3,3-4.5,4.6-6.7c0.7-0.9,1.3-1.9,2-2.8 c0.2-0.3,1.2-1.3,0.8-1c2.7-1.7,0.2-6.1-2.5-4.3c-3.5,2.3-6,7.6-8.3,11c-2.4,3.6-4.8,7.3-7.2,10.9 C117.5,36.8,121.8,39.3,123.5,36.6L123.5,36.6z" class="st0"/></g></g><g id="XMLID_11_"><g id="XMLID_1793_"><path id="XMLID_1798_" d="M93.3,8.6c5.3,7,10.6,14.1,15.9,21.1c1.9,2.5,6.3,0.1,4.3-2.5 c-5.3-7-10.6-14.1-15.9-21.1C95.7,3.5,91.3,6,93.3,8.6L93.3,8.6z" class="st0"/></g></g><g id="XMLID_18_"><g id="XMLID_1787_"><path id="XMLID_1791_" d="M99.5,59.8c2.6-1.7,5.2-3.4,7.9-5c2-1.2,3.9-2.4,5.9-3.5c0.8-0.5,1.7-0.9,2.5-1.3 c0.3-0.2,1.4-0.4,0.8-0.4c3.2,0,3.2-5,0-5c-3.5,0.1-7.7,3.4-10.5,5.1c-3.1,1.9-6.1,3.8-9.2,5.8C94.3,57.2,96.8,61.5,99.5,59.8 L99.5,59.8z" class="st0"/></g></g><g id="XMLID_19_"><g id="XMLID_1780_"><path id="XMLID_1784_" d="M115.4,59.7c2.1,6.7,4.2,13.3,6.3,20c1,3.1,5.8,1.8,4.8-1.3c-2.1-6.7-4.2-13.3-6.3-20 C119.3,55.3,114.4,56.6,115.4,59.7L115.4,59.7z" class="st0"/></g></g><g id="XMLID_25_"><g id="XMLID_1773_"><path id="XMLID_1777_" d="M101,86.9c7.7,0.9,15.4,1.7,23.1,2.6c3.2,0.4,3.2-4.6,0-5c-7.7-0.9-15.4-1.7-23.1-2.6 C97.8,81.5,97.9,86.5,101,86.9L101,86.9z" class="st0"/></g></g><g id="XMLID_26_"><g id="XMLID_1766_"><path id="XMLID_1771_" d="M105.5,100.2c5.8,0,11.7,0,17.5,0c3.2,0,3.2-5,0-5c-5.8,0-11.7,0-17.5,0 C102.2,95.2,102.2,100.2,105.5,100.2L105.5,100.2z" class="st0"/></g></g><g id="XMLID_32_"><g id="XMLID_1759_"><path id="XMLID_1764_" d="M159.7,71.2c4.9-2.5,9.8-5,14.7-7.5c2.9-1.5,0.3-5.8-2.5-4.3c-4.9,2.5-9.8,5-14.7,7.5 C154.3,68.3,156.8,72.6,159.7,71.2L159.7,71.2z" class="st0"/></g></g><g id="XMLID_33_"><g id="XMLID_1752_"><path id="XMLID_1757_" d="M150.1,90.7c8.5-3.1,17-6.2,25.5-9.3c3-1.1,1.7-5.9-1.3-4.8c-8.5,3.1-17,6.2-25.5,9.3 C145.8,87,147.1,91.8,150.1,90.7L150.1,90.7z" class="st0"/></g></g><g id="XMLID_34_"><g id="XMLID_1745_"><path id="XMLID_1750_" d="M148.2,101.3c9.4-0.4,18.8-0.8,28.2-1.2c3.2-0.1,3.2-5.1,0-5c-9.4,0.4-18.8,0.8-28.2,1.2 C144.9,96.5,144.9,101.5,148.2,101.3L148.2,101.3z" class="st0"/></g></g><g id="XMLID_10_"><g id="XMLID_1739_"><path id="XMLID_1743_" d="M133.3,95.9c5.1-7.5,10.1-14.9,15.2-22.4c1.8-2.7-2.5-5.2-4.3-2.5 c-5.1,7.5-10.1,14.9-15.2,22.4C127.2,96,131.5,98.5,133.3,95.9L133.3,95.9z" class="st0"/></g></g><g id="XMLID_12_"><g id="XMLID_1732_"><path id="XMLID_1736_" d="M128,54.7c6.9,2.8,13.9,5.5,20.8,8.3c3,1.2,4.3-3.6,1.3-4.8c-6.9-2.8-13.9-5.5-20.8-8.3 C126.3,48.7,125,53.5,128,54.7L128,54.7z" class="st0"/></g></g><g id="XMLID_8_"><g id="XMLID_1725_"><path id="XMLID_1729_" d="M144.7,126.2c-0.8,0.8-1.1,2-0.8,3.1c0.3,1.1,1.1,1.9,2.2,2.2c0.8,0.3,1.9,0,2.4-0.6 c0.8-0.9,1-1.9,0.8-3.1c-0.1-0.6-0.7-1.2-1.1-1.5c-0.5-0.3-1.3-0.4-1.9-0.3c-0.6,0.2-1.2,0.6-1.5,1.1c-0.3,0.6-0.4,1.2-0.3,1.9 c0.2-0.6,0.3-1.2,0.5-1.8c0.8-0.2,1.6-0.4,2.4-0.6c1.3,0.4,1.9,2,0.8,3.1c0.9-0.9,1-2.6,0-3.5 C147.3,125.3,145.7,125.2,144.7,126.2L144.7,126.2z" class="st0"/></g></g><g id="XMLID_20_"><g id="XMLID_1717_"><path id="XMLID_1723_" d="M123.3,126.7c-0.3,0.4-0.5,0.6-0.6,1.1c-0.2,0.7-0.1,1.4,0.3,2c0.5,0.8,1.3,1.3,2.2,1.5 c2.4,0.3,3.9-2.3,2.8-4.3c-0.7-1.1-2.3-1.6-3.4-0.9c-1.1,0.7-1.6,2.2-0.9,3.4c-0.1-0.5-0.2-1-0.2-1.5c0.2-0.4,0.4-0.7,0.6-1.1 c0.3-0.2,0.5-0.3,0.8-0.5c0.4,0,0.9,0,1.3,0c0.5,0.5,0.9,0.9,1.4,1.4c-0.1,0.6-0.2,1.3-0.3,1.9c0.1-0.2,0.2-0.3,0.4-0.5 c0.4-0.5,0.4-1.4,0.3-1.9c-0.2-0.6-0.6-1.2-1.1-1.5c-0.6-0.3-1.3-0.5-1.9-0.3C124.2,125.8,123.8,126.1,123.3,126.7L123.3,126.7 z" class="st0"/></g></g><g id="XMLID_21_"><g id="XMLID_1710_"><path id="XMLID_1715_" d="M148,140.9c0.1,6.8-4.3,14.1-11.2,15.6c-7.7,1.8-9.4-10.7-9.5-16.1c-0.1-3.2-5.1-3.2-5,0 c0.1,8.3,2.7,22,13.5,21.3c10.3-0.7,17.4-11.1,17.2-20.8C153,137.6,148,137.6,148,140.9L148,140.9z" class="st0"/></g></g></g><g id="XMLID_668_"><g id="XMLID_821_"><g id="XMLID_1703_"><path id="XMLID_1708_" d="M692.9,111.5c3.4,0.9,6.6,1.8,10.1,1.8c5.7,0,11.3-0.1,17-0.1 c10.4-0.1,20.8-0.1,31.3-0.2c-0.8-0.8-1.7-1.7-2.5-2.5c-0.7,5.8-1.9,11.8-2,17.7c0,0.7,0,1.2,0,1.9c0.1,1,0.8,4.2,0.8,2.3 c-0.1,1.8-0.6,3.7-0.9,5.5c-2,12.2-3.9,24.3-5.9,36.5c0.8-0.6,1.6-1.2,2.4-1.8c-13.8,0-27.6,0-41.4,0c0.2,1.6,0.4,3.3,0.7,4.9 c0.6-0.3,1.2-0.5,1.9-0.8c1.4-0.6,2-1.6,1.7-3.1c-1.7-11.5-3.3-22.9-5-34.4c-1.5-10.3-2.6-20.7-5.1-30.8 c-0.8-3.1-5.6-1.8-4.8,1.3c2.5,10.1,3.6,20.5,5.1,30.8c1.7,11.5,3.3,22.9,5,34.4c0.6-1,1.2-2.1,1.7-3.1 c-0.6,0.3-1.2,0.5-1.9,0.8c-2.4,1-2.4,4.9,0.7,4.9c13.8,0,27.6,0,41.4,0c1,0,2.2-0.8,2.4-1.8c2-12.3,3.9-24.6,5.9-36.9 c0.3-1.7,0.8-3.5,0.8-5.3c0.1-1.9-0.7-4.3-0.7-5.3c0-5.9,1.4-12,2-17.9c0.2-1.3-1.3-2.5-2.5-2.5c-10.1,0.1-20.2,0.1-30.3,0.2 c-5.7,0-11.3,0.1-17,0.1c-4,0-5.2-0.5-9.7-1.6C691.1,105.9,689.8,110.7,692.9,111.5z" class="st0"/></g></g><g id="XMLID_813_"><g id="XMLID_1696_"><path id="XMLID_1701_" d="M710.2,110.1c-3.8-10.5-7-21.2-9.9-31.9c-4.6-17.1-9.8-36-7.9-53.9 C692.9,20,696,7.7,702.6,10c6.2,2.2,9.1,14.1,10.7,19.6c3.5,11.8,4.2,24.2,5.5,36.3c1.6,14.9,3.2,29.9,4.8,44.8 c0.8-0.8,1.7-1.7,2.5-2.5c-6.1,0-12.1,0-18.2,0c-3.2,0-3.2,5,0,5c6.1,0,12.1,0,18.2,0c1.2,0,2.6-1.1,2.5-2.5 c-1.5-14.4-3-28.8-4.6-43.3c-1.5-13.5-2.2-27.4-6.2-40.5c-2.1-6.9-5.1-16.5-11.6-20.7c-6.5-4.2-13,1.4-15.9,7.2 c-3.5,6.8-3.3,15.4-2.8,22.8c0.7,10.2,2.6,20.3,4.9,30.3c3.5,15.1,7.9,30.2,13.1,44.8C706.5,114.5,711.3,113.2,710.2,110.1z" class="st0"/></g></g><g id="XMLID_805_"><g id="XMLID_1690_"><path id="XMLID_1694_" d="M744.3,109.7c3.3-11.1,6.2-22.4,8.6-33.7c3.8-17.3,8-36.3,5.8-54.1 c-0.8-6.6-3.1-12.9-9.1-16.5c-7.9-4.8-14.4,1.7-17.7,8.6c-6.8,14.1-6.3,30.9-7.4,46.3c-0.7,10.3-1.4,20.6-1.7,30.9 c-0.2,5.5-1.7,14.1,1,19.3c0.4,0.8,1.3,1.2,2.2,1.2c5.3,0,10.7,0,16,0c3.2,0,3.2-5,0-5c-5.3,0-10.7,0-16,0 c0.7,0.4,1.4,0.8,2.2,1.2c-1.4-2.7-0.5-10.7-0.4-14.4c0.2-8.4,0.7-16.7,1.2-25c0.8-12.4,0.8-25.8,3.1-38 c1-5.4,4.8-24.3,13.7-21.5c6.5,2.1,8,10.3,8.4,16.1c1.2,16.4-2.3,33.3-5.8,49.2c-2.5,11.5-5.4,23-8.8,34.2 C738.5,111.5,743.4,112.8,744.3,109.7z" class="st0"/></g></g><g id="XMLID_797_"><g id="XMLID_1683_"><path id="XMLID_1687_" d="M746.1,49.4c7.4,1.7,14.8,3.4,22.2,5.1c3.1,0.7,4.5-4.1,1.3-4.8 c-7.4-1.7-14.8-3.4-22.2-5.1C744.3,43.9,743,48.7,746.1,49.4L746.1,49.4z" class="st0"/></g></g><g id="XMLID_789_"><g id="XMLID_1676_"><path id="XMLID_1680_" d="M745.6,37.8c7.5-2.3,15.1-4.7,22.6-7c3.1-0.9,1.8-5.8-1.3-4.8c-7.5,2.3-15.1,4.7-22.6,7 C741.2,33.9,742.5,38.7,745.6,37.8L745.6,37.8z" class="st0"/></g></g><g id="XMLID_781_"><g id="XMLID_1669_"><path id="XMLID_1674_" d="M730.4,3.4c2.1,7,4.2,14,6.3,21c0.9,3.1,5.7,1.8,4.8-1.3c-2.1-7-4.2-14-6.3-21 C734.3-1,729.5,0.3,730.4,3.4L730.4,3.4z" class="st0"/></g></g><g id="XMLID_773_"><g id="XMLID_1662_"><path id="XMLID_1667_" d="M710,36.6c2.1-3.2,4.1-6.4,6.2-9.5c1.5-2.3,3-4.5,4.6-6.7c0.7-0.9,1.3-1.9,2-2.8 c0.2-0.3,1.2-1.3,0.8-1c2.7-1.7,0.2-6.1-2.5-4.3c-3.5,2.3-6,7.6-8.3,11c-2.4,3.6-4.8,7.3-7.2,10.9 C704,36.8,708.3,39.3,710,36.6L710,36.6z" class="st0"/></g></g><g id="XMLID_765_"><g id="XMLID_1655_"><path id="XMLID_1660_" d="M679.8,8.6c5.3,7,10.6,14.1,15.9,21.1c1.9,2.5,6.3,0.1,4.3-2.5 c-5.3-7-10.6-14.1-15.9-21.1C682.2,3.5,677.8,6,679.8,8.6L679.8,8.6z" class="st0"/></g></g><g id="XMLID_757_"><g id="XMLID_1648_"><path id="XMLID_1653_" d="M686,59.8c2.6-1.7,5.2-3.4,7.9-5c2-1.2,3.9-2.4,5.9-3.5c0.8-0.5,1.7-0.9,2.5-1.3 c0.3-0.2,1.4-0.4,0.8-0.4c3.2,0,3.2-5,0-5c-3.5,0.1-7.7,3.4-10.5,5.1c-3.1,1.9-6.1,3.8-9.2,5.8C680.8,57.2,683.3,61.5,686,59.8 L686,59.8z" class="st0"/></g></g><g id="XMLID_749_"><g id="XMLID_1642_"><path id="XMLID_1646_" d="M701.9,59.7c2.1,6.7,4.2,13.3,6.3,20c1,3.1,5.8,1.8,4.8-1.3c-2.1-6.7-4.2-13.3-6.3-20 C705.8,55.3,700.9,56.6,701.9,59.7L701.9,59.7z" class="st0"/></g></g><g id="XMLID_741_"><g id="XMLID_1635_"><path id="XMLID_1639_" d="M687.5,86.9c7.7,0.9,15.4,1.7,23.1,2.6c3.2,0.4,3.2-4.6,0-5c-7.7-0.9-15.4-1.7-23.1-2.6 C684.3,81.5,684.4,86.5,687.5,86.9L687.5,86.9z" class="st0"/></g></g><g id="XMLID_733_"><g id="XMLID_1628_"><path id="XMLID_1632_" d="M692,100.2c5.8,0,11.7,0,17.5,0c3.2,0,3.2-5,0-5c-5.8,0-11.7,0-17.5,0 C688.8,95.2,688.7,100.2,692,100.2L692,100.2z" class="st0"/></g></g><g id="XMLID_725_"><g id="XMLID_1621_"><path id="XMLID_1626_" d="M746.2,71.2c4.9-2.5,9.8-5,14.7-7.5c2.9-1.5,0.3-5.8-2.5-4.3c-4.9,2.5-9.8,5-14.7,7.5 C740.8,68.3,743.3,72.6,746.2,71.2L746.2,71.2z" class="st0"/></g></g><g id="XMLID_717_"><g id="XMLID_1614_"><path id="XMLID_1619_" d="M736.6,90.7c8.5-3.1,17-6.2,25.5-9.3c3-1.1,1.7-5.9-1.3-4.8c-8.5,3.1-17,6.2-25.5,9.3 C732.3,87,733.6,91.8,736.6,90.7L736.6,90.7z" class="st0"/></g></g><g id="XMLID_709_"><g id="XMLID_1607_"><path id="XMLID_1612_" d="M734.7,101.3c9.4-0.4,18.8-0.8,28.2-1.2c3.2-0.1,3.2-5.1,0-5c-9.4,0.4-18.8,0.8-28.2,1.2 C731.5,96.5,731.4,101.5,734.7,101.3L734.7,101.3z" class="st0"/></g></g><g id="XMLID_701_"><g id="XMLID_1600_"><path id="XMLID_1605_" d="M719.8,95.9c5.1-7.5,10.1-14.9,15.2-22.4c1.8-2.7-2.5-5.2-4.3-2.5 c-5.1,7.5-10.1,14.9-15.2,22.4C713.7,96,718,98.5,719.8,95.9L719.8,95.9z" class="st0"/></g></g><g id="XMLID_693_"><g id="XMLID_1594_"><path id="XMLID_1598_" d="M714.5,54.7c6.9,2.8,13.9,5.5,20.8,8.3c3,1.2,4.3-3.6,1.3-4.8 c-6.9-2.8-13.9-5.5-20.8-8.3C712.8,48.7,711.5,53.5,714.5,54.7L714.5,54.7z" class="st0"/></g></g><g id="XMLID_685_"><g id="XMLID_1587_"><path id="XMLID_1591_" d="M731.3,126.2c-0.8,0.8-1.1,2-0.8,3.1c0.3,1.1,1.1,1.9,2.2,2.2c0.8,0.3,1.9,0,2.4-0.6 c0.8-0.9,1-1.9,0.8-3.1c-0.1-0.6-0.7-1.2-1.1-1.5c-0.5-0.3-1.3-0.4-1.9-0.3c-0.6,0.2-1.2,0.6-1.5,1.1c-0.3,0.6-0.4,1.2-0.3,1.9 c0.2-0.6,0.3-1.2,0.5-1.8c0.8-0.2,1.6-0.4,2.4-0.6c1.3,0.4,1.9,2,0.8,3.1c0.9-0.9,1-2.6,0-3.5 C733.8,125.3,732.2,125.2,731.3,126.2L731.3,126.2z" class="st0"/></g></g><g id="XMLID_677_"><g id="XMLID_1580_"><path id="XMLID_1584_" d="M709.8,126.7c-0.3,0.4-0.5,0.6-0.6,1.1c-0.2,0.7-0.1,1.4,0.3,2c0.5,0.8,1.3,1.3,2.2,1.5 c2.4,0.3,3.9-2.3,2.8-4.3c-0.7-1.1-2.3-1.6-3.4-0.9c-1.1,0.7-1.6,2.2-0.9,3.4c-0.1-0.5-0.2-1-0.2-1.5c0.2-0.4,0.4-0.7,0.6-1.1 c0.3-0.2,0.5-0.3,0.8-0.5c0.4,0,0.9,0,1.3,0c0.5,0.5,0.9,0.9,1.4,1.4c-0.1,0.6-0.2,1.3-0.3,1.9c0.1-0.2,0.2-0.3,0.4-0.5 c0.4-0.5,0.4-1.4,0.3-1.9c-0.2-0.6-0.6-1.2-1.1-1.5c-0.6-0.3-1.3-0.5-1.9-0.3C710.7,125.8,710.3,126.1,709.8,126.7L709.8,126.7 z" class="st0"/></g></g><g id="XMLID_669_"><g id="XMLID_1573_"><path id="XMLID_1578_" d="M734.5,140.9c0.1,6.8-4.3,14.1-11.2,15.6c-7.7,1.8-9.4-10.7-9.5-16.1 c-0.1-3.2-5.1-3.2-5,0c0.1,8.3,2.7,22,13.5,21.3c10.3-0.7,17.4-11.1,17.2-20.8C739.5,137.6,734.5,137.6,734.5,140.9 L734.5,140.9z" class="st0"/></g></g></g><g id="XMLID_156_"><g id="XMLID_13_"><g id="XMLID_1820_"><path id="XMLID_1848_" d="M216.1,175c-1.6-15.4-3.1-30.8-4.7-46.2c-0.8,0.8-1.7,1.7-2.5,2.5c18.5,0,37,0,55.5,0 c-0.8-1.1-1.6-2.1-2.4-3.2c-3,15.4-6.1,30.8-9.1,46.2c0.8-0.6,1.6-1.2,2.4-1.8c-6.8,0.1-13.6,0.1-20.3,0.1 c-7.4,0-14.7-1.1-22.1,0c-3.2,0.5-1.8,5.3,1.3,4.8c7.3-1.1,15,0.2,22.4,0.2c6.2,0,12.4,0,18.7-0.1c1,0,2.2-0.8,2.4-1.8 c3-15.4,6.1-30.8,9.1-46.2c0.3-1.6-0.7-3.2-2.4-3.2c-18.5,0-37,0-55.5,0c-1.3,0-2.6,1.1-2.5,2.5c1.6,15.4,3.1,30.8,4.7,46.2 C211.4,178.2,216.4,178.2,216.1,175z" class="st1"/></g></g><g id="XMLID_14_"><g id="XMLID_1564_"><path id="XMLID_1570_" d="M212.8,169.6c16.3,0.3,32.6,0.6,48.9,0.9c3.2,0.1,3.2-4.9,0-5 c-16.3-0.3-32.6-0.6-48.9-0.9C209.6,164.5,209.6,169.5,212.8,169.6L212.8,169.6z" class="st1"/></g></g><g id="XMLID_15_"><g id="XMLID_1555_"><path id="XMLID_1562_" d="M216.9,162.3c15.5,0.4,30.9,0.8,46.4,1.2c3.2,0.1,3.2-4.9,0-5 c-15.5-0.4-30.9-0.8-46.4-1.2C213.6,157.3,213.6,162.3,216.9,162.3L216.9,162.3z" class="st1"/></g></g><g id="XMLID_16_"><g id="XMLID_1547_"><path id="XMLID_1553_" d="M219.4,154.4c16.3,0.6,32.7,1.2,49,1.9c3.2,0.1,3.2-4.9,0-5c-16.3-0.6-32.7-1.2-49-1.9 C216.2,149.3,216.2,154.3,219.4,154.4L219.4,154.4z" class="st1"/></g></g><g id="XMLID_17_"><g id="XMLID_1539_"><path id="XMLID_1545_" d="M220.6,145.5c15.6,0.6,31.1,1.2,46.7,1.9c3.2,0.1,3.2-4.9,0-5 c-15.6-0.6-31.1-1.2-46.7-1.9C217.4,140.4,217.4,145.4,220.6,145.5L220.6,145.5z" class="st1"/></g></g><g id="XMLID_128_"><g id="XMLID_1532_"><path id="XMLID_1537_" d="M223.1,138.5c15.9,0,31.9,0,47.8,0c3.2,0,3.2-5,0-5c-15.9,0-31.9,0-47.8,0 C219.9,133.5,219.9,138.5,223.1,138.5L223.1,138.5z" class="st1"/></g></g><g id="XMLID_134_"><g id="XMLID_1525_"><path id="XMLID_1530_" d="M237.9,126.7c-17.2-10.2-34.4-20.4-51.6-30.6c-1.5-0.9-3.1,0-3.7,1.5 c-1.9,5.2,0.2,11.4,3.3,15.6c10.8,14.6,34.3,16.8,50.7,18.1c3.2,0.3,3.2-4.7,0-5c-10.9-0.9-22-2.4-32.2-6.4 c-5.3-2.1-11-5-14.5-9.7c-2.5-3.3-3.7-7.9-2.5-11.3c-1.2,0.5-2.4,1-3.7,1.5c17.2,10.2,34.4,20.4,51.6,30.6 C238.2,132.6,240.7,128.3,237.9,126.7z" class="st1"/></g></g><g id="XMLID_140_"><g id="XMLID_1518_"><path id="XMLID_1523_" d="M237.9,131c13-7.5,26-14.9,39-22.4c-1.1-0.3-2.3-0.6-3.4-0.9c-0.1-0.2,0.2,0.5,0.2,0.9 c-0.1,1.4-0.9,2.9-2.2,4.3c-2.9,3.1-7.2,5.1-11.1,6.7c-7.8,3.2-16.1,5.1-24.4,6.8c-3.2,0.6-1.8,5.5,1.3,4.8 c9.2-1.9,18.4-4.1,26.9-7.9c4.3-1.9,8.7-4.3,11.7-8c2.2-2.7,3.8-6.9,1.8-10.2c-0.7-1.2-2.2-1.6-3.4-0.9 c-13,7.5-26,14.9-39,22.4C232.6,128.3,235.2,132.6,237.9,131z" class="st1"/></g></g><g id="XMLID_146_"><g id="XMLID_1511_"><path id="XMLID_1516_" d="M239.1,129.5c8.1-27.2,16.2-54.4,24.3-81.6c1.2-3.9,2.3-7.8,3.5-11.7 c-1.5,0.2-3,0.4-4.6,0.6c5.3,7.8,7.9,18.2,8.2,27.5c1,26.1-16,47.4-35.6,62.7c-2.5,2,1,5.5,3.5,3.5 c20.3-16,37.8-38.3,37.1-65.4c-0.3-10.5-3-22.2-9-31c-1.2-1.8-3.9-1.5-4.6,0.6c-8.1,27.2-16.2,54.4-24.3,81.6 c-1.2,3.9-2.3,7.8-3.5,11.7C233.4,131.2,238.2,132.6,239.1,129.5z" class="st1"/></g></g><g id="XMLID_152_"><g id="XMLID_1505_"><path id="XMLID_1509_" d="M239.2,128.8c0.6-13.6,1.4-27.2,2.3-40.8c1.4-20.6,2.5-41.7,6.7-61.9 c0.3-1.6-0.7-3.1-2.4-3.2c-4.4-0.1-8.5,3.5-11,6.8c-8.7,11.7-8.6,29.4-8.1,43.2c0.7,19,3.8,37.9,7.6,56.5 c0.6,3.2,5.5,1.8,4.8-1.3c-5.1-25.1-10.5-52.7-6.4-78.4c1.2-7.4,3.7-17.5,10.6-21.1c0.3-0.2,1.3-0.2,2.1-0.7 c0.1-0.1-0.4,0,0.4,0c-0.8-1.1-1.6-2.1-2.4-3.2c-4.2,20.3-5.4,41.4-6.8,62.1c-1,14-1.8,27.9-2.4,41.9 C234,132,239,132,239.2,128.8z" class="st1"/></g></g><g id="XMLID_153_"><g id="XMLID_1498_"><path id="XMLID_1502_" d="M239.1,128.2c-8-27.2-16-54.4-23.6-81.6c-1.5-5.3-3.2-10.7-4.2-16.1 c-0.3-1.8-3-2.5-4.2-1.1c-15.1,17.6-10.1,45.4-0.5,64.1c7.1,13.9,17.3,26.1,28.3,37.2c2.3,2.3,5.8-1.3,3.5-3.5 c-18.2-18.3-36.8-42.4-35.8-69.7c0.2-6.3,1.6-12.6,4.3-18.2c0.8-1.7,1.7-3.3,2.7-4.9c0.6-1,0.8-1.2,1-1.4 c-1.4-0.4-2.8-0.7-4.2-1.1c2.3,12.4,6.6,24.6,10,36.8c4.7,16.6,9.6,33.1,14.4,49.6c1.1,3.8,2.2,7.6,3.3,11.4 C235.2,132.6,240,131.2,239.1,128.2z" class="st1"/></g></g></g><g id="XMLID_1_"><g id="XMLID_154_"><g id="XMLID_1490_"><path id="XMLID_1494_" d="M324.5,134.7c7.1,0,14.6,0.8,21.7,0c2.5-0.3,5.3-1.5,5.4,2.2c0.1,2.9-1.4,6-2.1,8.8 c-0.7,2.9-1.4,5.8-2.2,8.7c-1.5,5.5-3.6,11.2-7.9,15.1c-5.6,5.2-14.1,6-21.3,4.8c-12-2.1-20.2-12.7-19.2-24.9 c0.3-3.3-0.9-9.2,1.6-11.7c2.9-2.8,10.7-1.7,14.5-2C318.3,135.4,321.4,135.1,324.5,134.7c3.2-0.4,3.2-5.4,0-5 c-3.7,0.5-7.4,0.8-11.1,1.1c-4.5,0.4-10.4-0.5-14.5,1.9c-5,2.9-4.8,8.4-4.6,13.3c0.1,1.6,0.1-0.4-0.1,1.1 c-0.2,1.4-0.3,2.9-0.3,4.3c0,3.2,0.6,6.4,1.6,9.4c2.2,6.5,6.7,12.1,12.8,15.3c14.2,7.5,33.3,3.7,40.5-11.3 c3-6.2,4.3-13.1,6.1-19.7c1.3-5,3.9-12.9-2.5-15.5c-2.1-0.8-4.1-0.5-6.3-0.2c-1.3,0.2,0,0.1-0.5,0.1c-1,0.1-2.1,0-3.2,0 c-5.9,0-11.9,0-17.8,0C321.3,129.7,321.3,134.7,324.5,134.7z" class="st0"/></g></g><g id="XMLID_155_"><g id="XMLID_1483_"><path id="XMLID_1487_" d="M337.2,131.7c1.3-20.1,3.6-40.7,9-60.1c1.4-5.2,5.4-22.1,13.4-20.8 c11.4,1.8,3.3,27.2,1.6,33.2c-4.6,16.3-11.3,31.9-17.7,47.6c0.8-0.6,1.6-1.2,2.4-1.8c-3.7-0.2-7.5-0.4-11.2-0.5 c-3.2-0.2-3.2,4.8,0,5c3.7,0.2,7.5,0.4,11.2,0.5c1.2,0.1,2-0.8,2.4-1.8c6.3-15.5,12.9-30.9,17.6-47.1 c2.8-9.7,9.6-30.6-1.2-38.2c-20.8-14.6-28.1,44.6-29.4,54c-1.4,10-2.5,20-3.1,30.1C332,134.9,337,134.9,337.2,131.7z" class="st0"/></g></g><g id="XMLID_157_"><g id="XMLID_1476_"><path id="XMLID_1481_" d="M311.5,133c-2.2-10.9-3.9-22-5.2-33c-2.3-18.7-4.4-38.7-1.2-57.4c1-5.9,2.7-13.7,8-17.3 c4.3-3,8.5-1.3,11,3c3.7,6.4,4.5,14.6,5.1,21.7c0.9,9.8,0.8,19.7,0.5,29.5c-0.6,17.6-2.3,35.3-4.5,52.8 c0.8-0.8,1.7-1.7,2.5-2.5c-6.2,0.5-12.4,0.9-18.6,1.4c-3.2,0.2-3.2,5.2,0,5c6.2-0.5,12.4-0.9,18.6-1.4c1.5-0.1,2.3-1.1,2.5-2.5 c2.1-16.7,3.7-33.4,4.4-50.2c0.4-10.7,0.6-21.4-0.4-32.1c-0.7-7.9-1.7-16.4-5.4-23.5c-2.6-5-7.2-8.6-13.1-7.5 c-6.4,1.2-10.4,6.6-12.7,12.4c-3.2,8.2-4,17.4-4.2,26.1c-0.3,10.7,0.3,21.5,1.4,32.1c1.5,15,3.6,30.1,6.6,44.9 C307.4,137.5,312.2,136.1,311.5,133z" class="st0"/></g></g><g id="XMLID_158_"><g id="XMLID_1468_"><path id="XMLID_1474_" d="M346.9,35.2c0.6,11.4,1.2,22.9,1.8,34.3c0.2,3.2,5.2,3.2,5,0 c-0.6-11.4-1.2-22.9-1.8-34.3C351.7,32,346.7,32,346.9,35.2L346.9,35.2z" class="st0"/></g></g><g id="XMLID_199_"><g id="XMLID_1461_"><path id="XMLID_1466_" d="M355.7,87.3c5.9-0.8,11.9-1.6,17.8-2.3c3.1-0.4,3.2-5.4,0-5c-5.9,0.8-11.9,1.6-17.8,2.3 C352.5,82.7,352.5,87.7,355.7,87.3L355.7,87.3z" class="st0"/></g></g><g id="XMLID_209_"><g id="XMLID_1454_"><path id="XMLID_1459_" d="M346.6,116.7c6.2-0.9,12.5-1.9,18.7-2.8c3.2-0.5,1.8-5.3-1.3-4.8 c-6.2,0.9-12.5,1.9-18.7,2.8C342.1,112.3,343.4,117.2,346.6,116.7L346.6,116.7z" class="st0"/></g></g><g id="XMLID_216_"><g id="XMLID_1448_"><path id="XMLID_1452_" d="M323.5,81.4c7.5,6.2,14.9,12.4,22.4,18.5c2.5,2,6-1.5,3.5-3.5 c-7.5-6.2-14.9-12.4-22.4-18.5C324.6,75.8,321,79.4,323.5,81.4L323.5,81.4z" class="st0"/></g></g><g id="XMLID_229_"><g id="XMLID_1441_"><path id="XMLID_1445_" d="M322.8,62.9c6.1-5.8,12.1-11.7,18.2-17.5c2.3-2.2-1.2-5.8-3.5-3.5 c-6.1,5.8-12.1,11.7-18.2,17.5C317,61.6,320.5,65.1,322.8,62.9L322.8,62.9z" class="st0"/></g></g><g id="XMLID_236_"><g id="XMLID_1434_"><path id="XMLID_1438_" d="M318.6,13.5c-1.4,5.2-2.8,10.5-4.2,15.7c-0.8,3.1,4,4.4,4.8,1.3 c1.4-5.2,2.8-10.5,4.2-15.7C324.3,11.8,319.5,10.4,318.6,13.5L318.6,13.5z" class="st0"/></g></g><g id="XMLID_237_"><g id="XMLID_1427_"><path id="XMLID_1432_" d="M294.6,27.5c6.8,7.5,13.6,15,20.4,22.4c2.2,2.4,5.7-1.2,3.5-3.5 c-6.8-7.5-13.6-15-20.4-22.4C296,21.6,292.5,25.1,294.6,27.5L294.6,27.5z" class="st0"/></g></g><g id="XMLID_238_"><g id="XMLID_1420_"><path id="XMLID_1425_" d="M287,77.6c3.4-2,6.7-4,10.2-5.9c3.2-1.8,9.2-6.3,12.7-6.3c3.2,0,3.2-5,0-5 c-4.5,0-9.8,4-13.5,6c-4,2.2-8,4.5-11.9,6.9C281.7,74.9,284.2,79.3,287,77.6L287,77.6z" class="st0"/></g></g><g id="XMLID_244_"><g id="XMLID_1413_"><path id="XMLID_1418_" d="M310.2,73.3c0.5,8.9,0.9,17.8,1.4,26.7c0.2,3.2,5.2,3.2,5,0c-0.5-8.9-0.9-17.8-1.4-26.7 C315,70.1,310,70.1,310.2,73.3L310.2,73.3z" class="st0"/></g></g><g id="XMLID_250_"><g id="XMLID_1406_"><path id="XMLID_1411_" d="M295.7,122.3c5.9,1.1,11.8,2.2,17.6,3.3c3.1,0.6,4.5-4.2,1.3-4.8 c-5.9-1.1-11.8-2.2-17.6-3.3C293.9,116.9,292.6,121.7,295.7,122.3L295.7,122.3z" class="st0"/></g></g><g id="XMLID_230_"><g id="XMLID_1400_"><path id="XMLID_1404_" d="M334.4,109c-0.9,3.3-1.9,6.7-2.9,10c-0.8,2.4-1.6,4.8-2.6,7.2c-0.4,1-1,1.9-1.4,2.9 c-0.6,1.3-0.7,0.6-0.4,0.7c0.4,1.6,0.8,3.1,1.3,4.7c-1.6,0.9-0.5,0.2,0.6,0.2c0.7,0,1.5-0.1,2.2-0.1c1.2-0.1,2.3-0.1,3.5-0.2 c1.8-0.1,3.3-2.1,2.2-3.8c-4.4-6.7-0.2-13.6,2.3-20.1C340.3,107.4,335.5,106.1,334.4,109c-3.1,7.9-7.2,15.8-1.8,23.9 c0.7-1.3,1.4-2.5,2.2-3.8c-2.6,0.1-6.5-0.4-8.9,0.9c-2.3,1.3-1,4.5,1.3,4.7c4.6,0.4,6.5-6.8,7.7-10.1c1.7-4.7,3.1-9.5,4.4-14.3 C340,107.2,335.2,105.9,334.4,109z" class="st0"/></g></g></g><g id="XMLID_2084_"><g id="XMLID_2237_"><g id="XMLID_1467_"><path id="XMLID_1495_" d="M1767.7,111.5c3.4,0.9,6.6,1.8,10.1,1.8c5.7,0,11.3-0.1,17-0.1 c10.4-0.1,20.8-0.1,31.3-0.2c-0.8-0.8-1.7-1.7-2.5-2.5c-0.7,5.8-1.9,11.8-2,17.7c0,0.7,0,1.2,0,1.9c0.1,1,0.8,4.2,0.8,2.3 c-0.1,1.8-0.6,3.7-0.9,5.5c-2,12.2-3.9,24.3-5.9,36.5c0.8-0.6,1.6-1.2,2.4-1.8c-13.8,0-27.6,0-41.4,0c0.2,1.6,0.4,3.3,0.7,4.9 c0.6-0.3,1.2-0.5,1.9-0.8c1.4-0.6,2-1.6,1.7-3.1c-1.7-11.5-3.3-22.9-5-34.4c-1.5-10.3-2.6-20.7-5.1-30.8 c-0.8-3.1-5.6-1.8-4.8,1.3c2.5,10.1,3.6,20.5,5.1,30.8c1.7,11.5,3.3,22.9,5,34.4c0.6-1,1.2-2.1,1.7-3.1 c-0.6,0.3-1.2,0.5-1.9,0.8c-2.4,1-2.4,4.9,0.7,4.9c13.8,0,27.6,0,41.4,0c1,0,2.2-0.8,2.4-1.8c2-12.3,3.9-24.6,5.9-36.9 c0.3-1.7,0.8-3.5,0.8-5.3c0.1-1.9-0.7-4.3-0.7-5.3c0-5.9,1.4-12,2-17.9c0.2-1.3-1.3-2.5-2.5-2.5c-10.1,0.1-20.2,0.1-30.3,0.2 c-5.7,0-11.3,0.1-17,0.1c-4,0-5.2-0.5-9.7-1.6C1765.9,105.9,1764.6,110.7,1767.7,111.5z" class="st1"/></g></g><g id="XMLID_2229_"><g id="XMLID_1390_"><path id="XMLID_1396_" d="M1785,110.1c-3.8-10.5-7-21.2-9.9-31.9c-4.6-17.1-9.8-36-7.9-53.9 c0.5-4.3,3.5-16.6,10.1-14.3c6.2,2.2,9.1,14.1,10.7,19.6c3.5,11.8,4.2,24.2,5.5,36.3c1.6,14.9,3.2,29.9,4.8,44.8 c0.8-0.8,1.7-1.7,2.5-2.5c-6.1,0-12.1,0-18.2,0c-3.2,0-3.2,5,0,5c6.1,0,12.1,0,18.2,0c1.2,0,2.6-1.1,2.5-2.5 c-1.5-14.4-3-28.8-4.6-43.3c-1.5-13.5-2.2-27.4-6.2-40.5c-2.1-6.9-5.1-16.5-11.6-20.7c-6.5-4.2-13,1.4-15.9,7.2 c-3.5,6.8-3.3,15.4-2.8,22.8c0.7,10.2,2.6,20.3,4.9,30.3c3.5,15.1,7.9,30.2,13.1,44.8C1781.3,114.5,1786.1,113.2,1785,110.1z" class="st1"/></g></g><g id="XMLID_2221_"><g id="XMLID_1382_"><path id="XMLID_1388_" d="M1819.1,109.7c3.3-11.1,6.2-22.4,8.6-33.7c3.8-17.3,8-36.3,5.8-54.1 c-0.8-6.6-3.1-12.9-9.1-16.5c-7.9-4.8-14.4,1.7-17.7,8.6c-6.8,14.1-6.3,30.9-7.4,46.3c-0.7,10.3-1.4,20.6-1.7,30.9 c-0.2,5.5-1.7,14.1,1,19.3c0.4,0.8,1.3,1.2,2.2,1.2c5.3,0,10.7,0,16,0c3.2,0,3.2-5,0-5c-5.3,0-10.7,0-16,0 c0.7,0.4,1.4,0.8,2.2,1.2c-1.4-2.7-0.5-10.7-0.4-14.4c0.2-8.4,0.7-16.7,1.2-25c0.8-12.4,0.8-25.8,3.1-38 c1-5.4,4.8-24.3,13.7-21.5c6.5,2.1,8,10.3,8.4,16.1c1.2,16.4-2.3,33.3-5.8,49.2c-2.5,11.5-5.4,23-8.8,34.2 C1813.3,111.5,1818.1,112.8,1819.1,109.7z" class="st1"/></g></g><g id="XMLID_2213_"><g id="XMLID_1374_"><path id="XMLID_1380_" d="M1820.9,49.4c7.4,1.7,14.8,3.4,22.2,5.1c3.1,0.7,4.5-4.1,1.3-4.8 c-7.4-1.7-14.8-3.4-22.2-5.1C1819.1,43.9,1817.7,48.7,1820.9,49.4L1820.9,49.4z" class="st1"/></g></g><g id="XMLID_2205_"><g id="XMLID_1366_"><path id="XMLID_1372_" d="M1820.3,37.8c7.5-2.3,15.1-4.7,22.6-7c3.1-0.9,1.8-5.8-1.3-4.8c-7.5,2.3-15.1,4.7-22.6,7 C1816,33.9,1817.3,38.7,1820.3,37.8L1820.3,37.8z" class="st1"/></g></g><g id="XMLID_2197_"><g id="XMLID_1360_"><path id="XMLID_1364_" d="M1805.1,3.4c2.1,7,4.2,14,6.3,21c0.9,3.1,5.7,1.8,4.8-1.3c-2.1-7-4.2-14-6.3-21 C1809-1,1804.2,0.3,1805.1,3.4L1805.1,3.4z" class="st1"/></g></g><g id="XMLID_2189_"><g id="XMLID_1352_"><path id="XMLID_1356_" d="M1784.8,36.6c2.1-3.2,4.1-6.4,6.2-9.5c1.5-2.3,3-4.5,4.6-6.7c0.7-0.9,1.3-1.9,2-2.8 c0.2-0.3,1.2-1.3,0.8-1c2.7-1.7,0.2-6.1-2.5-4.3c-3.5,2.3-6,7.6-8.3,11c-2.4,3.6-4.8,7.3-7.2,10.9 C1778.7,36.8,1783,39.3,1784.8,36.6L1784.8,36.6z" class="st1"/></g></g><g id="XMLID_2181_"><g id="XMLID_1345_"><path id="XMLID_1349_" d="M1754.5,8.6c5.3,7,10.6,14.1,15.9,21.1c1.9,2.5,6.3,0.1,4.3-2.5 c-5.3-7-10.6-14.1-15.9-21.1C1756.9,3.5,1752.6,6,1754.5,8.6L1754.5,8.6z" class="st1"/></g></g><g id="XMLID_2173_"><g id="XMLID_1338_"><path id="XMLID_1343_" d="M1760.8,59.8c2.6-1.7,5.2-3.4,7.9-5c2-1.2,3.9-2.4,5.9-3.5c0.8-0.5,1.7-0.9,2.5-1.3 c0.3-0.2,1.4-0.4,0.8-0.4c3.2,0,3.2-5,0-5c-3.5,0.1-7.7,3.4-10.5,5.1c-3.1,1.9-6.1,3.8-9.2,5.8 C1755.5,57.2,1758.1,61.5,1760.8,59.8L1760.8,59.8z" class="st1"/></g></g><g id="XMLID_2165_"><g id="XMLID_1331_"><path id="XMLID_1336_" d="M1776.7,59.7c2.1,6.7,4.2,13.3,6.3,20c1,3.1,5.8,1.8,4.8-1.3c-2.1-6.7-4.2-13.3-6.3-20 C1780.5,55.3,1775.7,56.6,1776.7,59.7L1776.7,59.7z" class="st1"/></g></g><g id="XMLID_2157_"><g id="XMLID_1324_"><path id="XMLID_1329_" d="M1762.3,86.9c7.7,0.9,15.4,1.7,23.1,2.6c3.2,0.4,3.2-4.6,0-5c-7.7-0.9-15.4-1.7-23.1-2.6 C1759.1,81.5,1759.1,86.5,1762.3,86.9L1762.3,86.9z" class="st1"/></g></g><g id="XMLID_2149_"><g id="XMLID_1317_"><path id="XMLID_1322_" d="M1766.7,100.2c5.8,0,11.7,0,17.5,0c3.2,0,3.2-5,0-5c-5.8,0-11.7,0-17.5,0 C1763.5,95.2,1763.5,100.2,1766.7,100.2L1766.7,100.2z" class="st1"/></g></g><g id="XMLID_2141_"><g id="XMLID_1311_"><path id="XMLID_1315_" d="M1820.9,71.2c4.9-2.5,9.8-5,14.7-7.5c2.9-1.5,0.3-5.8-2.5-4.3c-4.9,2.5-9.8,5-14.7,7.5 C1815.6,68.3,1818.1,72.6,1820.9,71.2L1820.9,71.2z" class="st1"/></g></g><g id="XMLID_2133_"><g id="XMLID_1304_"><path id="XMLID_1308_" d="M1811.4,90.7c8.5-3.1,17-6.2,25.5-9.3c3-1.1,1.7-5.9-1.3-4.8c-8.5,3.1-17,6.2-25.5,9.3 C1807,87,1808.3,91.8,1811.4,90.7L1811.4,90.7z" class="st1"/></g></g><g id="XMLID_2125_"><g id="XMLID_1297_"><path id="XMLID_1301_" d="M1809.4,101.3c9.4-0.4,18.8-0.8,28.2-1.2c3.2-0.1,3.2-5.1,0-5 c-9.4,0.4-18.8,0.8-28.2,1.2C1806.2,96.5,1806.2,101.5,1809.4,101.3L1809.4,101.3z" class="st1"/></g></g><g id="XMLID_2117_"><g id="XMLID_1290_"><path id="XMLID_1295_" d="M1794.5,95.9c5.1-7.5,10.1-14.9,15.2-22.4c1.8-2.7-2.5-5.2-4.3-2.5 c-5.1,7.5-10.1,14.9-15.2,22.4C1788.4,96,1792.8,98.5,1794.5,95.9L1794.5,95.9z" class="st1"/></g></g><g id="XMLID_2109_"><g id="XMLID_1283_"><path id="XMLID_1288_" d="M1789.2,54.7c6.9,2.8,13.9,5.5,20.8,8.3c3,1.2,4.3-3.6,1.3-4.8 c-6.9-2.8-13.9-5.5-20.8-8.3C1787.6,48.7,1786.3,53.5,1789.2,54.7L1789.2,54.7z" class="st1"/></g></g><g id="XMLID_2101_"><g id="XMLID_1276_"><path id="XMLID_1281_" d="M1806,126.2c-0.8,0.8-1.1,2-0.8,3.1c0.3,1.1,1.1,1.9,2.2,2.2c0.8,0.3,1.9,0,2.4-0.6 c0.8-0.9,1-1.9,0.8-3.1c-0.1-0.6-0.7-1.2-1.1-1.5c-0.5-0.3-1.3-0.4-1.9-0.3c-0.6,0.2-1.2,0.6-1.5,1.1c-0.3,0.6-0.4,1.2-0.3,1.9 c0.2-0.6,0.3-1.2,0.5-1.8c0.8-0.2,1.6-0.4,2.4-0.6c1.3,0.4,1.9,2,0.8,3.1c0.9-0.9,1-2.6,0-3.5 C1808.5,125.3,1807,125.2,1806,126.2L1806,126.2z" class="st1"/></g></g><g id="XMLID_2093_"><g id="XMLID_1269_"><path id="XMLID_1274_" d="M1784.6,126.7c-0.3,0.4-0.5,0.6-0.6,1.1c-0.2,0.7-0.1,1.4,0.3,2c0.5,0.8,1.3,1.3,2.2,1.5 c2.4,0.3,3.9-2.3,2.8-4.3c-0.7-1.1-2.3-1.6-3.4-0.9c-1.1,0.7-1.6,2.2-0.9,3.4c-0.1-0.5-0.2-1-0.2-1.5c0.2-0.4,0.4-0.7,0.6-1.1 c0.3-0.2,0.5-0.3,0.8-0.5c0.4,0,0.9,0,1.3,0c0.5,0.5,0.9,0.9,1.4,1.4c-0.1,0.6-0.2,1.3-0.3,1.9c0.1-0.2,0.2-0.3,0.4-0.5 c0.4-0.5,0.4-1.4,0.3-1.9c-0.2-0.6-0.6-1.2-1.1-1.5c-0.6-0.3-1.3-0.5-1.9-0.3C1785.4,125.8,1785,126.1,1784.6,126.7 L1784.6,126.7z" class="st1"/></g></g><g id="XMLID_2085_"><g id="XMLID_1263_"><path id="XMLID_1267_" d="M1809.3,140.9c0.1,6.8-4.3,14.1-11.2,15.6c-7.7,1.8-9.4-10.7-9.5-16.1 c-0.1-3.2-5.1-3.2-5,0c0.1,8.3,2.7,22,13.5,21.3c10.3-0.7,17.4-11.1,17.2-20.8C1814.2,137.6,1809.2,137.6,1809.3,140.9 L1809.3,140.9z" class="st1"/></g></g></g><g id="XMLID_1995_"><g id="XMLID_2076_"><g id="XMLID_1255_"><path id="XMLID_1259_" d="M1674.3,175c-1.6-15.4-3.1-30.8-4.7-46.2c-0.8,0.8-1.7,1.7-2.5,2.5c18.5,0,37,0,55.5,0 c-0.8-1.1-1.6-2.1-2.4-3.2c-3,15.4-6.1,30.8-9.1,46.2c0.8-0.6,1.6-1.2,2.4-1.8c-6.8,0.1-13.6,0.1-20.3,0.1 c-7.4,0-14.7-1.1-22.1,0c-3.2,0.5-1.8,5.3,1.3,4.8c7.3-1.1,15,0.2,22.4,0.2c6.2,0,12.4,0,18.7-0.1c1,0,2.2-0.8,2.4-1.8 c3-15.4,6.1-30.8,9.1-46.2c0.3-1.6-0.7-3.2-2.4-3.2c-18.5,0-37,0-55.5,0c-1.3,0-2.6,1.1-2.5,2.5c1.6,15.4,3.1,30.8,4.7,46.2 C1669.6,178.2,1674.6,178.2,1674.3,175z" class="st0"/></g></g><g id="XMLID_2068_"><g id="XMLID_1248_"><path id="XMLID_1252_" d="M1671,169.6c16.3,0.3,32.6,0.6,48.9,0.9c3.2,0.1,3.2-4.9,0-5 c-16.3-0.3-32.6-0.6-48.9-0.9C1667.7,164.5,1667.7,169.5,1671,169.6L1671,169.6z" class="st0"/></g></g><g id="XMLID_2060_"><g id="XMLID_1240_"><path id="XMLID_1244_" d="M1675,162.3c15.5,0.4,30.9,0.8,46.4,1.2c3.2,0.1,3.2-4.9,0-5 c-15.5-0.4-30.9-0.8-46.4-1.2C1671.8,157.3,1671.8,162.3,1675,162.3L1675,162.3z" class="st0"/></g></g><g id="XMLID_2052_"><g id="XMLID_1233_"><path id="XMLID_1238_" d="M1677.6,154.4c16.3,0.6,32.7,1.2,49,1.9c3.2,0.1,3.2-4.9,0-5c-16.3-0.6-32.7-1.2-49-1.9 C1674.4,149.3,1674.4,154.3,1677.6,154.4L1677.6,154.4z" class="st0"/></g></g><g id="XMLID_2044_"><g id="XMLID_1226_"><path id="XMLID_1231_" d="M1678.8,145.5c15.6,0.6,31.1,1.2,46.7,1.9c3.2,0.1,3.2-4.9,0-5 c-15.6-0.6-31.1-1.2-46.7-1.9C1675.5,140.4,1675.5,145.4,1678.8,145.5L1678.8,145.5z" class="st0"/></g></g><g id="XMLID_2036_"><g id="XMLID_1219_"><path id="XMLID_1224_" d="M1681.3,138.5c15.9,0,31.9,0,47.8,0c3.2,0,3.2-5,0-5c-15.9,0-31.9,0-47.8,0 C1678.1,133.5,1678.1,138.5,1681.3,138.5L1681.3,138.5z" class="st0"/></g></g><g id="XMLID_2028_"><g id="XMLID_1212_"><path id="XMLID_1217_" d="M1696.1,126.7c-17.2-10.2-34.4-20.4-51.6-30.6c-1.5-0.9-3.1,0-3.7,1.5 c-1.9,5.2,0.2,11.4,3.3,15.6c10.8,14.6,34.3,16.8,50.7,18.1c3.2,0.3,3.2-4.7,0-5c-10.9-0.9-22-2.4-32.2-6.4 c-5.3-2.1-11-5-14.5-9.7c-2.5-3.3-3.7-7.9-2.5-11.3c-1.2,0.5-2.4,1-3.7,1.5c17.2,10.2,34.4,20.4,51.6,30.6 C1696.4,132.6,1698.9,128.3,1696.1,126.7z" class="st0"/></g></g><g id="XMLID_2020_"><g id="XMLID_1206_"><path id="XMLID_1210_" d="M1696.1,131c13-7.5,26-14.9,39-22.4c-1.1-0.3-2.3-0.6-3.4-0.9c-0.1-0.2,0.2,0.5,0.2,0.9 c-0.1,1.4-0.9,2.9-2.2,4.3c-2.9,3.1-7.2,5.1-11.1,6.7c-7.8,3.2-16.1,5.1-24.4,6.8c-3.2,0.6-1.8,5.5,1.3,4.8 c9.2-1.9,18.4-4.1,26.9-7.9c4.3-1.9,8.7-4.3,11.7-8c2.2-2.7,3.8-6.9,1.8-10.2c-0.7-1.2-2.2-1.6-3.4-0.9 c-13,7.5-26,14.9-39,22.4C1690.8,128.3,1693.3,132.6,1696.1,131z" class="st0"/></g></g><g id="XMLID_2012_"><g id="XMLID_1199_"><path id="XMLID_1203_" d="M1697.3,129.5c8.1-27.2,16.2-54.4,24.3-81.6c1.2-3.9,2.3-7.8,3.5-11.7 c-1.5,0.2-3,0.4-4.6,0.6c5.3,7.8,7.9,18.2,8.2,27.5c1,26.1-16,47.4-35.6,62.7c-2.5,2,1,5.5,3.5,3.5 c20.3-16,37.8-38.3,37.1-65.4c-0.3-10.5-3-22.2-9-31c-1.2-1.8-3.9-1.5-4.6,0.6c-8.1,27.2-16.2,54.4-24.3,81.6 c-1.2,3.9-2.3,7.8-3.5,11.7C1691.5,131.2,1696.3,132.6,1697.3,129.5z" class="st0"/></g></g><g id="XMLID_2004_"><g id="XMLID_1196_"><path id="XMLID_1571_" d="M1697.3,128.8c0.6-13.6,1.4-27.2,2.3-40.8c1.4-20.6,2.5-41.7,6.7-61.9 c0.3-1.6-0.7-3.1-2.4-3.2c-4.4-0.1-8.5,3.5-11,6.8c-8.7,11.7-8.6,29.4-8.1,43.2c0.7,19,3.8,37.9,7.6,56.5 c0.6,3.2,5.5,1.8,4.8-1.3c-5.1-25.1-10.5-52.7-6.4-78.4c1.2-7.4,3.7-17.5,10.6-21.1c0.3-0.2,1.3-0.2,2.1-0.7 c0.1-0.1-0.4,0,0.4,0c-0.8-1.1-1.6-2.1-2.4-3.2c-4.2,20.3-5.4,41.4-6.8,62.1c-1,14-1.8,27.9-2.4,41.9 C1692.2,132,1697.2,132,1697.3,128.8z" class="st0"/></g></g><g id="XMLID_1996_"><g id="XMLID_1185_"><path id="XMLID_1190_" d="M1697.3,128.2c-8-27.2-16-54.4-23.6-81.6c-1.5-5.3-3.2-10.7-4.2-16.1 c-0.3-1.8-3-2.5-4.2-1.1c-15.1,17.6-10.1,45.4-0.5,64.1c7.1,13.9,17.3,26.1,28.3,37.2c2.3,2.3,5.8-1.3,3.5-3.5 c-18.2-18.3-36.8-42.4-35.8-69.7c0.2-6.3,1.6-12.6,4.3-18.2c0.8-1.7,1.7-3.3,2.7-4.9c0.6-1,0.8-1.2,1-1.4 c-1.4-0.4-2.8-0.7-4.2-1.1c2.3,12.4,6.6,24.6,10,36.8c4.7,16.6,9.6,33.1,14.4,49.6c1.1,3.8,2.2,7.6,3.3,11.4 C1693.3,132.6,1698.2,131.2,1697.3,128.2z" class="st0"/></g></g></g><g id="XMLID_829_"><g id="XMLID_934_"><g id="XMLID_1232_"><path id="XMLID_1260_" d="M816.6,134.7c7.1,0,14.6,0.8,21.7,0c2.5-0.3,5.3-1.5,5.4,2.2c0.1,2.9-1.4,6-2.1,8.8 c-0.7,2.9-1.4,5.8-2.2,8.7c-1.5,5.5-3.6,11.2-7.9,15.1c-5.6,5.2-14.1,6-21.3,4.8c-12-2.1-20.2-12.7-19.2-24.9 c0.3-3.3-0.9-9.2,1.6-11.7c2.9-2.8,10.7-1.7,14.5-2C810.3,135.4,813.5,135.1,816.6,134.7c3.2-0.4,3.2-5.4,0-5 c-3.7,0.5-7.4,0.8-11.1,1.1c-4.5,0.4-10.4-0.5-14.5,1.9c-5,2.9-4.8,8.4-4.6,13.3c0.1,1.6,0.1-0.4-0.1,1.1 c-0.2,1.4-0.3,2.9-0.3,4.3c0,3.2,0.6,6.4,1.6,9.4c2.2,6.5,6.7,12.1,12.8,15.3c14.2,7.5,33.3,3.7,40.5-11.3 c3-6.2,4.3-13.1,6.1-19.7c1.3-5,3.9-12.9-2.5-15.5c-2.1-0.8-4.1-0.5-6.3-0.2c-1.3,0.2,0,0.1-0.5,0.1c-1,0.1-2.1,0-3.2,0 c-5.9,0-11.9,0-17.8,0C813.4,129.7,813.4,134.7,816.6,134.7z" class="st1"/></g></g><g id="XMLID_926_"><g id="XMLID_1176_"><path id="XMLID_1182_" d="M829.2,131.7c1.3-20.1,3.6-40.7,9-60.1c1.4-5.2,5.4-22.1,13.4-20.8 C863,52.6,855,78,853.3,84c-4.6,16.3-11.3,31.9-17.7,47.6c0.8-0.6,1.6-1.2,2.4-1.8c-3.7-0.2-7.5-0.4-11.2-0.5 c-3.2-0.2-3.2,4.8,0,5c3.7,0.2,7.5,0.4,11.2,0.5c1.2,0.1,2-0.8,2.4-1.8c6.3-15.5,12.9-30.9,17.6-47.1 c2.8-9.7,9.6-30.6-1.2-38.2c-20.8-14.6-28.1,44.6-29.4,54c-1.4,10-2.5,20-3.1,30.1C824,134.9,829,134.9,829.2,131.7z" class="st1"/></g></g><g id="XMLID_918_"><g id="XMLID_1168_"><path id="XMLID_1174_" d="M803.6,133c-2.2-10.9-3.9-22-5.2-33c-2.3-18.7-4.4-38.7-1.2-57.4c1-5.9,2.7-13.7,8-17.3 c4.3-3,8.5-1.3,11,3c3.7,6.4,4.5,14.6,5.1,21.7c0.9,9.8,0.8,19.7,0.5,29.5c-0.6,17.6-2.3,35.3-4.5,52.8 c0.8-0.8,1.7-1.7,2.5-2.5c-6.2,0.5-12.4,0.9-18.6,1.4c-3.2,0.2-3.2,5.2,0,5c6.2-0.5,12.4-0.9,18.6-1.4c1.5-0.1,2.3-1.1,2.5-2.5 c2.1-16.7,3.7-33.4,4.4-50.2c0.4-10.7,0.6-21.4-0.4-32.1c-0.7-7.9-1.7-16.4-5.4-23.5c-2.6-5-7.2-8.6-13.1-7.5 c-6.4,1.2-10.4,6.6-12.7,12.4c-3.2,8.2-4,17.4-4.2,26.1c-0.3,10.7,0.3,21.5,1.4,32.1c1.5,15,3.6,30.1,6.6,44.9 C799.4,137.5,804.2,136.1,803.6,133z" class="st1"/></g></g><g id="XMLID_910_"><g id="XMLID_1160_"><path id="XMLID_1166_" d="M838.9,35.2c0.6,11.4,1.2,22.9,1.8,34.3c0.2,3.2,5.2,3.2,5,0 c-0.6-11.4-1.2-22.9-1.8-34.3C843.8,32,838.8,32,838.9,35.2L838.9,35.2z" class="st1"/></g></g><g id="XMLID_902_"><g id="XMLID_1151_"><path id="XMLID_1158_" d="M847.7,87.3c5.9-0.8,11.9-1.6,17.8-2.3c3.1-0.4,3.2-5.4,0-5c-5.9,0.8-11.9,1.6-17.8,2.3 C844.6,82.7,844.5,87.7,847.7,87.3L847.7,87.3z" class="st1"/></g></g><g id="XMLID_894_"><g id="XMLID_1144_"><path id="XMLID_1149_" d="M838.6,116.7c6.2-0.9,12.5-1.9,18.7-2.8c3.2-0.5,1.8-5.3-1.3-4.8 c-6.2,0.9-12.5,1.9-18.7,2.8C834.1,112.3,835.4,117.2,838.6,116.7L838.6,116.7z" class="st1"/></g></g><g id="XMLID_886_"><g id="XMLID_1137_"><path id="XMLID_1142_" d="M815.6,81.4c7.5,6.2,14.9,12.4,22.4,18.5c2.5,2,6-1.5,3.5-3.5 c-7.5-6.2-14.9-12.4-22.4-18.5C816.6,75.8,813.1,79.4,815.6,81.4L815.6,81.4z" class="st1"/></g></g><g id="XMLID_878_"><g id="XMLID_1130_"><path id="XMLID_1135_" d="M814.9,62.9c6.1-5.8,12.1-11.7,18.2-17.5c2.3-2.2-1.2-5.8-3.5-3.5 c-6.1,5.8-12.1,11.7-18.2,17.5C809,61.6,812.5,65.1,814.9,62.9L814.9,62.9z" class="st1"/></g></g><g id="XMLID_870_"><g id="XMLID_1123_"><path id="XMLID_1128_" d="M810.7,13.5c-1.4,5.2-2.8,10.5-4.2,15.7c-0.8,3.1,4,4.4,4.8,1.3 c1.4-5.2,2.8-10.5,4.2-15.7C816.3,11.8,811.5,10.4,810.7,13.5L810.7,13.5z" class="st1"/></g></g><g id="XMLID_862_"><g id="XMLID_1117_"><path id="XMLID_1121_" d="M786.7,27.5c6.8,7.5,13.6,15,20.4,22.4c2.2,2.4,5.7-1.2,3.5-3.5 c-6.8-7.5-13.6-15-20.4-22.4C788.1,21.6,784.5,25.1,786.7,27.5L786.7,27.5z" class="st1"/></g></g><g id="XMLID_854_"><g id="XMLID_1110_"><path id="XMLID_1114_" d="M779,77.6c3.4-2,6.7-4,10.2-5.9c3.2-1.8,9.2-6.3,12.7-6.3c3.2,0,3.2-5,0-5 c-4.5,0-9.8,4-13.5,6c-4,2.2-8,4.5-11.9,6.9C773.7,74.9,776.2,79.3,779,77.6L779,77.6z" class="st1"/></g></g><g id="XMLID_846_"><g id="XMLID_1103_"><path id="XMLID_1107_" d="M802.2,73.3c0.5,8.9,0.9,17.8,1.4,26.7c0.2,3.2,5.2,3.2,5,0c-0.5-8.9-0.9-17.8-1.4-26.7 C807,70.1,802,70.1,802.2,73.3L802.2,73.3z" class="st1"/></g></g><g id="XMLID_838_"><g id="XMLID_1096_"><path id="XMLID_1101_" d="M787.8,122.3c5.9,1.1,11.8,2.2,17.6,3.3c3.1,0.6,4.5-4.2,1.3-4.8 c-5.9-1.1-11.8-2.2-17.6-3.3C786,116.9,784.6,121.7,787.8,122.3L787.8,122.3z" class="st1"/></g></g><g id="XMLID_830_"><g id="XMLID_1089_"><path id="XMLID_1094_" d="M826.4,109c-0.9,3.3-1.9,6.7-2.9,10c-0.8,2.4-1.6,4.8-2.6,7.2c-0.4,1-1,1.9-1.4,2.9 c-0.6,1.3-0.7,0.6-0.4,0.7c0.4,1.6,0.8,3.1,1.3,4.7c-1.6,0.9-0.5,0.2,0.6,0.2c0.7,0,1.5-0.1,2.2-0.1c1.2-0.1,2.3-0.1,3.5-0.2 c1.8-0.1,3.3-2.1,2.2-3.8c-4.4-6.7-0.2-13.6,2.3-20.1C832.4,107.4,827.6,106.1,826.4,109c-3.1,7.9-7.2,15.8-1.8,23.9 c0.7-1.3,1.4-2.5,2.2-3.8c-2.6,0.1-6.5-0.4-8.9,0.9c-2.3,1.3-1,4.5,1.3,4.7c4.6,0.4,6.5-6.8,7.7-10.1c1.7-4.7,3.1-9.5,4.4-14.3 C832,107.2,827.2,105.9,826.4,109z" class="st1"/></g></g></g><g id="XMLID_579_"><g id="XMLID_660_"><g id="XMLID_1081_"><path id="XMLID_1086_" d="M518.8,175c-1.6-15.4-3.1-30.8-4.7-46.2c-0.8,0.8-1.7,1.7-2.5,2.5c18.5,0,37,0,55.5,0 c-0.8-1.1-1.6-2.1-2.4-3.2c-3,15.4-6.1,30.8-9.1,46.2c0.8-0.6,1.6-1.2,2.4-1.8c-6.8,0.1-13.6,0.1-20.3,0.1 c-7.4,0-14.7-1.1-22.1,0c-3.2,0.5-1.8,5.3,1.3,4.8c7.3-1.1,15,0.2,22.4,0.2c6.2,0,12.4,0,18.7-0.1c1,0,2.2-0.8,2.4-1.8 c3-15.4,6.1-30.8,9.1-46.2c0.3-1.6-0.7-3.2-2.4-3.2c-18.5,0-37,0-55.5,0c-1.3,0-2.6,1.1-2.5,2.5c1.6,15.4,3.1,30.8,4.7,46.2 C514.1,178.2,519.1,178.2,518.8,175z" class="st0"/></g></g><g id="XMLID_652_"><g id="XMLID_1074_"><path id="XMLID_1079_" d="M515.5,169.6c16.3,0.3,32.6,0.6,48.9,0.9c3.2,0.1,3.2-4.9,0-5 c-16.3-0.3-32.6-0.6-48.9-0.9C512.3,164.5,512.3,169.5,515.5,169.6L515.5,169.6z" class="st0"/></g></g><g id="XMLID_644_"><g id="XMLID_1067_"><path id="XMLID_1072_" d="M519.6,162.3c15.5,0.4,30.9,0.8,46.4,1.2c3.2,0.1,3.2-4.9,0-5 c-15.5-0.4-30.9-0.8-46.4-1.2C516.4,157.3,516.4,162.3,519.6,162.3L519.6,162.3z" class="st0"/></g></g><g id="XMLID_636_"><g id="XMLID_1061_"><path id="XMLID_1065_" d="M522.1,154.4c16.3,0.6,32.7,1.2,49,1.9c3.2,0.1,3.2-4.9,0-5c-16.3-0.6-32.7-1.2-49-1.9 C518.9,149.3,518.9,154.3,522.1,154.4L522.1,154.4z" class="st0"/></g></g><g id="XMLID_628_"><g id="XMLID_1054_"><path id="XMLID_1058_" d="M523.3,145.5c15.6,0.6,31.1,1.2,46.7,1.9c3.2,0.1,3.2-4.9,0-5 c-15.6-0.6-31.1-1.2-46.7-1.9C520.1,140.4,520.1,145.4,523.3,145.5L523.3,145.5z" class="st0"/></g></g><g id="XMLID_620_"><g id="XMLID_1047_"><path id="XMLID_1051_" d="M525.8,138.5c15.9,0,31.9,0,47.8,0c3.2,0,3.2-5,0-5c-15.9,0-31.9,0-47.8,0 C522.6,133.5,522.6,138.5,525.8,138.5L525.8,138.5z" class="st0"/></g></g><g id="XMLID_612_"><g id="XMLID_1039_"><path id="XMLID_1045_" d="M540.7,126.7c-17.2-10.2-34.4-20.4-51.6-30.6c-1.5-0.9-3.1,0-3.7,1.5 c-1.9,5.2,0.2,11.4,3.3,15.6c10.8,14.6,34.3,16.8,50.7,18.1c3.2,0.3,3.2-4.7,0-5c-10.9-0.9-22-2.4-32.2-6.4 c-5.3-2.1-11-5-14.5-9.7c-2.5-3.3-3.7-7.9-2.5-11.3c-1.2,0.5-2.4,1-3.7,1.5c17.2,10.2,34.4,20.4,51.6,30.6 C540.9,132.6,543.4,128.3,540.7,126.7z" class="st0"/></g></g><g id="XMLID_604_"><g id="XMLID_1032_"><path id="XMLID_1037_" d="M540.7,131c13-7.5,26-14.9,39-22.4c-1.1-0.3-2.3-0.6-3.4-0.9c-0.1-0.2,0.2,0.5,0.2,0.9 c-0.1,1.4-0.9,2.9-2.2,4.3c-2.9,3.1-7.2,5.1-11.1,6.7c-7.8,3.2-16.1,5.1-24.4,6.8c-3.2,0.6-1.8,5.5,1.3,4.8 c9.2-1.9,18.4-4.1,26.9-7.9c4.3-1.9,8.7-4.3,11.7-8c2.2-2.7,3.8-6.9,1.8-10.2c-0.7-1.2-2.2-1.6-3.4-0.9 c-13,7.5-26,14.9-39,22.4C535.4,128.3,537.9,132.6,540.7,131z" class="st0"/></g></g><g id="XMLID_596_"><g id="XMLID_1025_"><path id="XMLID_1030_" d="M541.8,129.5c8.1-27.2,16.2-54.4,24.3-81.6c1.2-3.9,2.3-7.8,3.5-11.7 c-1.5,0.2-3,0.4-4.6,0.6c5.3,7.8,7.9,18.2,8.2,27.5c1,26.1-16,47.4-35.6,62.7c-2.5,2,1,5.5,3.5,3.5 c20.3-16,37.8-38.3,37.1-65.4c-0.3-10.5-3-22.2-9-31c-1.2-1.8-3.9-1.5-4.6,0.6c-8.1,27.2-16.2,54.4-24.3,81.6 c-1.2,3.9-2.3,7.8-3.5,11.7C536.1,131.2,540.9,132.6,541.8,129.5z" class="st0"/></g></g><g id="XMLID_588_"><g id="XMLID_1018_"><path id="XMLID_1023_" d="M541.9,128.8c0.6-13.6,1.4-27.2,2.3-40.8c1.4-20.6,2.5-41.7,6.7-61.9 c0.3-1.6-0.7-3.1-2.4-3.2c-4.4-0.1-8.5,3.5-11,6.8c-8.7,11.7-8.6,29.4-8.1,43.2c0.7,19,3.8,37.9,7.6,56.5 c0.6,3.2,5.5,1.8,4.8-1.3c-5.1-25.1-10.5-52.7-6.4-78.4c1.2-7.4,3.7-17.5,10.6-21.1c0.3-0.2,1.3-0.2,2.1-0.7 c0.1-0.1-0.4,0,0.4,0c-0.8-1.1-1.6-2.1-2.4-3.2c-4.2,20.3-5.4,41.4-6.8,62.1c-1,14-1.8,27.9-2.4,41.9 C536.8,132,541.8,132,541.9,128.8z" class="st0"/></g></g><g id="XMLID_580_"><g id="XMLID_1012_"><path id="XMLID_1016_" d="M541.8,128.2c-8-27.2-16-54.4-23.6-81.6c-1.5-5.3-3.2-10.7-4.2-16.1 c-0.3-1.8-3-2.5-4.2-1.1c-15.1,17.6-10.1,45.4-0.5,64.1c7.1,13.9,17.3,26.1,28.3,37.2c2.3,2.3,5.8-1.3,3.5-3.5 c-18.2-18.3-36.8-42.4-35.8-69.7c0.2-6.3,1.6-12.6,4.3-18.2c0.8-1.7,1.7-3.3,2.7-4.9c0.6-1,0.8-1.2,1-1.4 c-1.4-0.4-2.8-0.7-4.2-1.1c2.3,12.4,6.6,24.6,10,36.8c4.7,16.6,9.6,33.1,14.4,49.6c1.1,3.8,2.2,7.6,3.3,11.4 C537.9,132.6,542.7,131.2,541.8,128.2z" class="st0"/></g></g></g><g id="XMLID_24_"><g id="XMLID_571_"><g id="XMLID_1059_"><path id="XMLID_1087_" d="M627.3,134.7c7.1,0,14.6,0.8,21.7,0c2.5-0.3,5.3-1.5,5.4,2.2c0.1,2.9-1.4,6-2.1,8.8 c-0.7,2.9-1.4,5.8-2.2,8.7c-1.5,5.5-3.6,11.2-7.9,15.1c-5.6,5.2-14.1,6-21.3,4.8c-12-2.1-20.2-12.7-19.2-24.9 c0.3-3.3-0.9-9.2,1.6-11.7c2.9-2.8,10.7-1.7,14.5-2C621,135.4,624.1,135.1,627.3,134.7c3.2-0.4,3.2-5.4,0-5 c-3.7,0.5-7.4,0.8-11.1,1.1c-4.5,0.4-10.4-0.5-14.5,1.9c-5,2.9-4.8,8.4-4.6,13.3c0.1,1.6,0.1-0.4-0.1,1.1 c-0.2,1.4-0.3,2.9-0.3,4.3c0,3.2,0.6,6.4,1.6,9.4c2.2,6.5,6.7,12.1,12.8,15.3c14.2,7.5,33.3,3.7,40.5-11.3 c3-6.2,4.3-13.1,6.1-19.7c1.3-5,3.9-12.9-2.5-15.5c-2.1-0.8-4.1-0.5-6.3-0.2c-1.3,0.2,0,0.1-0.5,0.1c-1,0.1-2.1,0-3.2,0 c-5.9,0-11.9,0-17.8,0C624.1,129.7,624,134.7,627.3,134.7z" class="st1"/></g></g><g id="XMLID_563_"><g id="XMLID_1001_"><path id="XMLID_1007_" d="M639.9,131.7c1.3-20.1,3.6-40.7,9-60.1c1.4-5.2,5.4-22.1,13.4-20.8 c11.4,1.8,3.3,27.2,1.6,33.2c-4.6,16.3-11.3,31.9-17.7,47.6c0.8-0.6,1.6-1.2,2.4-1.8c-3.7-0.2-7.5-0.4-11.2-0.5 c-3.2-0.2-3.2,4.8,0,5c3.7,0.2,7.5,0.4,11.2,0.5c1.2,0.1,2-0.8,2.4-1.8c6.3-15.5,12.9-30.9,17.6-47.1 c2.8-9.7,9.6-30.6-1.2-38.2c-20.8-14.6-28.1,44.6-29.4,54c-1.4,10-2.5,20-3.1,30.1C634.7,134.9,639.7,134.9,639.9,131.7z" class="st1"/></g></g><g id="XMLID_555_"><g id="XMLID_992_"><path id="XMLID_999_" d="M614.3,133c-2.2-10.9-3.9-22-5.2-33c-2.3-18.7-4.4-38.7-1.2-57.4c1-5.9,2.7-13.7,8-17.3 c4.3-3,8.5-1.3,11,3c3.7,6.4,4.5,14.6,5.1,21.7c0.9,9.8,0.8,19.7,0.5,29.5c-0.6,17.6-2.3,35.3-4.5,52.8 c0.8-0.8,1.7-1.7,2.5-2.5c-6.2,0.5-12.4,0.9-18.6,1.4c-3.2,0.2-3.2,5.2,0,5c6.2-0.5,12.4-0.9,18.6-1.4c1.5-0.1,2.3-1.1,2.5-2.5 c2.1-16.7,3.7-33.4,4.4-50.2c0.4-10.7,0.6-21.4-0.4-32.1c-0.7-7.9-1.7-16.4-5.4-23.5c-2.6-5-7.2-8.6-13.1-7.5 C612,20,608,25.5,605.7,31.2c-3.2,8.2-4,17.4-4.2,26.1c-0.3,10.7,0.3,21.5,1.4,32.1c1.5,15,3.6,30.1,6.6,44.9 C610.1,137.5,614.9,136.1,614.3,133z" class="st1"/></g></g><g id="XMLID_547_"><g id="XMLID_984_"><path id="XMLID_990_" d="M649.6,35.2c0.6,11.4,1.2,22.9,1.8,34.3c0.2,3.2,5.2,3.2,5,0c-0.6-11.4-1.2-22.9-1.8-34.3 C654.4,32,649.4,32,649.6,35.2L649.6,35.2z" class="st1"/></g></g><g id="XMLID_539_"><g id="XMLID_975_"><path id="XMLID_982_" d="M658.4,87.3c5.9-0.8,11.9-1.6,17.8-2.3c3.1-0.4,3.2-5.4,0-5c-5.9,0.8-11.9,1.6-17.8,2.3 C655.3,82.7,655.2,87.7,658.4,87.3L658.4,87.3z" class="st1"/></g></g><g id="XMLID_531_"><g id="XMLID_969_"><path id="XMLID_973_" d="M649.3,116.7c6.2-0.9,12.5-1.9,18.7-2.8c3.2-0.5,1.8-5.3-1.3-4.8 c-6.2,0.9-12.5,1.9-18.7,2.8C644.8,112.3,646.1,117.2,649.3,116.7L649.3,116.7z" class="st1"/></g></g><g id="XMLID_523_"><g id="XMLID_962_"><path id="XMLID_966_" d="M626.2,81.4c7.5,6.2,14.9,12.4,22.4,18.5c2.5,2,6-1.5,3.5-3.5 c-7.5-6.2-14.9-12.4-22.4-18.5C627.3,75.8,623.8,79.4,626.2,81.4L626.2,81.4z" class="st1"/></g></g><g id="XMLID_515_"><g id="XMLID_954_"><path id="XMLID_958_" d="M625.5,62.9c6.1-5.8,12.1-11.7,18.2-17.5c2.3-2.2-1.2-5.8-3.5-3.5 c-6.1,5.8-12.1,11.7-18.2,17.5C619.7,61.6,623.2,65.1,625.5,62.9L625.5,62.9z" class="st1"/></g></g><g id="XMLID_507_"><g id="XMLID_947_"><path id="XMLID_952_" d="M621.4,13.5c-1.4,5.2-2.8,10.5-4.2,15.7c-0.8,3.1,4,4.4,4.8,1.3 c1.4-5.2,2.8-10.5,4.2-15.7C627,11.8,622.2,10.4,621.4,13.5L621.4,13.5z" class="st1"/></g></g><g id="XMLID_499_"><g id="XMLID_939_"><path id="XMLID_945_" d="M597.4,27.5c6.8,7.5,13.6,15,20.4,22.4c2.2,2.4,5.7-1.2,3.5-3.5 c-6.8-7.5-13.6-15-20.4-22.4C598.7,21.6,595.2,25.1,597.4,27.5L597.4,27.5z" class="st1"/></g></g><g id="XMLID_491_"><g id="XMLID_932_"><path id="XMLID_937_" d="M589.7,77.6c3.4-2,6.7-4,10.2-5.9c3.2-1.8,9.2-6.3,12.7-6.3c3.2,0,3.2-5,0-5 c-4.5,0-9.8,4-13.5,6c-4,2.2-8,4.5-11.9,6.9C584.4,74.9,586.9,79.3,589.7,77.6L589.7,77.6z" class="st1"/></g></g><g id="XMLID_482_"><g id="XMLID_925_"><path id="XMLID_930_" d="M612.9,73.3c0.5,8.9,0.9,17.8,1.4,26.7c0.2,3.2,5.2,3.2,5,0c-0.5-8.9-0.9-17.8-1.4-26.7 C617.7,70.1,612.7,70.1,612.9,73.3L612.9,73.3z" class="st1"/></g></g><g id="XMLID_472_"><g id="XMLID_919_"><path id="XMLID_923_" d="M598.5,122.3c5.9,1.1,11.8,2.2,17.6,3.3c3.1,0.6,4.5-4.2,1.3-4.8 c-5.9-1.1-11.8-2.2-17.6-3.3C596.7,116.9,595.3,121.7,598.5,122.3L598.5,122.3z" class="st1"/></g></g><g id="XMLID_27_"><g id="XMLID_912_"><path id="XMLID_916_" d="M637.1,109c-0.9,3.3-1.9,6.7-2.9,10c-0.8,2.4-1.6,4.8-2.6,7.2c-0.4,1-1,1.9-1.4,2.9 c-0.6,1.3-0.7,0.6-0.4,0.7c0.4,1.6,0.8,3.1,1.3,4.7c-1.6,0.9-0.5,0.2,0.6,0.2c0.7,0,1.5-0.1,2.2-0.1c1.2-0.1,2.3-0.1,3.5-0.2 c1.8-0.1,3.3-2.1,2.2-3.8c-4.4-6.7-0.2-13.6,2.3-20.1C643.1,107.4,638.2,106.1,637.1,109c-3.1,7.9-7.2,15.8-1.8,23.9 c0.7-1.3,1.4-2.5,2.2-3.8c-2.6,0.1-6.5-0.4-8.9,0.9c-2.3,1.3-1,4.5,1.3,4.7c4.6,0.4,6.5-6.8,7.7-10.1c1.7-4.7,3.1-9.5,4.4-14.3 C642.7,107.2,637.9,105.9,637.1,109z" class="st1"/></g></g></g><g id="XMLID_239_"><g id="XMLID_487_"><g id="XMLID_905_"><path id="XMLID_909_" d="M406.5,130c7.9-0.8,15.8-1.4,23.7-1.8c10.1-0.6,21.1-1.8,31.2,0.1c-0.6-1-1.2-2.1-1.7-3.1 c-1.2,7.9-2.3,15.8-3.3,23.7c-0.7,5.4-1.4,10.9-1.8,16.4c-0.2,2.8-0.9,6.3,0.3,9c0.7-1.3,1.4-2.5,2.2-3.8 c-14.6,0.4-29.6,0.2-44.1,2.1c0.8,0.8,1.7,1.7,2.5,2.5c-2.1-15.9-4.4-31.7-6.3-47.6c-0.4-3.2-5.4-3.2-5,0 c1.8,15.9,4.2,31.7,6.3,47.6c0.2,1.2,1,2.7,2.5,2.5c14.5-1.9,29.5-1.7,44.1-2.1c2-0.1,2.9-2,2.2-3.8c0.3,0.6,0.1-1.8,0.1-2.4 c0.1-1.9,0.2-3.8,0.4-5.7c0.5-5.3,1.1-10.5,1.8-15.8c0.9-7.1,1.9-14.2,3-21.3c0.2-1.2-0.3-2.8-1.7-3.1 c-9.9-1.8-20.6-0.9-30.6-0.4c-8.5,0.5-17.1,1.1-25.6,1.9C403.3,125.3,403.3,130.3,406.5,130z" class="st1"/></g></g><g id="XMLID_480_"><g id="XMLID_898_"><path id="XMLID_903_" d="M428.6,89.7c0.6,11.9,1.3,23.9,1.9,35.8c0.2,3.2,5.2,3.2,5,0c-0.6-11.9-1.3-23.9-1.9-35.8 C433.5,86.5,428.5,86.5,428.6,89.7L428.6,89.7z" class="st1"/></g></g><g id="XMLID_465_"><g id="XMLID_473_"><g id="XMLID_891_"><path id="XMLID_896_" d="M474.7,106.5c-12.4-7.1-29.4-13.9-43.7-9.7c-1.9,0.5-2.3,2.8-1.1,4.2 c11.3,12.6,30.8,23,45.3,9.5c2.4-2.2-1.2-5.7-3.5-3.5c-12.3,11.5-29,0.9-38.3-9.5c-0.4,1.4-0.7,2.8-1.1,4.2 c13-3.8,28.6,2.8,39.9,9.2C475,112.5,477.5,108.1,474.7,106.5z" class="st1"/></g></g><g id="XMLID_466_"><g id="XMLID_884_"><path id="XMLID_889_" d="M468.6,107.4c-11.9-3.5-23.8-7.1-35.8-10.6c-3.1-0.9-4.4,3.9-1.3,4.8 c11.9,3.5,23.8,7.1,35.8,10.6C470.4,113.2,471.7,108.4,468.6,107.4L468.6,107.4z" class="st1"/></g></g></g><g id="XMLID_450_"><g id="XMLID_458_"><g id="XMLID_877_"><path id="XMLID_882_" d="M390.3,105.8c12-4.6,28.6-9,40.8-3.3c-0.2-1.3-0.3-2.6-0.5-3.9 c-10.9,9-28.8,16.3-39.2,3.1c-2-2.5-5.5,1-3.5,3.5c12.3,15.6,33.4,7.6,46.3-3.1c1.2-1,0.9-3.3-0.5-3.9 c-13.6-6.3-31.3-2.3-44.7,2.8C386,102.1,387.3,106.9,390.3,105.8z" class="st1"/></g></g><g id="XMLID_451_"><g id="XMLID_871_"><path id="XMLID_875_" d="M394.9,107.8c12.5-1.7,25-3.4,37.5-5c3.1-0.4,3.2-5.4,0-5c-12.5,1.7-25,3.4-37.5,5 C391.8,103.2,391.7,108.2,394.9,107.8L394.9,107.8z" class="st1"/></g></g></g><g id="XMLID_435_"><g id="XMLID_443_"><g id="XMLID_864_"><path id="XMLID_868_" d="M434.1,100.5c5.1-21.9,18.9-44.1,38.9-54.9c-1.3-0.7-2.5-1.4-3.8-2.2 c0.5,7.7-0.8,15.8-3.3,23.1c-5.4,16.4-18.1,27.4-35,30.9c-3.1,0.7-1.8,5.5,1.3,4.8c17.7-3.7,31.2-15.1,37.6-32 c3.1-8.3,4.9-17.9,4.3-26.9c-0.1-1.9-2-3.1-3.8-2.2c-21,11.4-35.8,34.9-41.2,57.9C428.5,102.3,433.4,103.6,434.1,100.5z" class="st1"/></g></g><g id="XMLID_436_"><g id="XMLID_857_"><path id="XMLID_861_" d="M433.4,101.6c6.3-7.5,12.3-15.1,18.3-22.9c8.2-10.7,17.6-22,22.4-34.7 c1.2-3-3.7-4.3-4.8-1.3c-4.7,12.2-14.1,23.2-21.9,33.5c-5.7,7.4-11.5,14.7-17.5,21.9C427.9,100.5,431.4,104,433.4,101.6 L433.4,101.6z" class="st1"/></g></g></g><g id="XMLID_420_"><g id="XMLID_428_"><g id="XMLID_850_"><path id="XMLID_855_" d="M433.4,99.1c-5.4-23.1-20.2-46.5-41.2-57.9c-1.7-0.9-3.6,0.3-3.8,2.2 c-0.6,8.9,1.1,18.5,4.3,26.9c6.4,16.9,19.9,28.3,37.6,32c3.1,0.7,4.5-4.2,1.3-4.8c-16.9-3.6-29.6-14.5-35-30.9 c-2.4-7.3-3.8-15.4-3.3-23.1c-1.3,0.7-2.5,1.4-3.8,2.2c20,10.8,33.8,33.1,38.9,54.9C429.3,103.6,434.2,102.3,433.4,99.1z" class="st1"/></g></g><g id="XMLID_421_"><g id="XMLID_843_"><path id="XMLID_848_" d="M432.8,98c-6-7.2-11.8-14.5-17.5-21.9c-7.8-10.3-17.2-21.3-21.9-33.5 c-1.1-3-6-1.7-4.8,1.3c4.9,12.7,14.3,24,22.4,34.7c5.9,7.8,12,15.4,18.3,22.9C431.3,104,434.8,100.5,432.8,98L432.8,98z" class="st1"/></g></g></g><g id="XMLID_403_"><g id="XMLID_836_"><path id="XMLID_841_" d="M426.2,11.7c-15.1,26.1-15.7,60.6,3.4,84.6c1,1.3,3.2,0.7,3.9-0.5 c16-25.9,18.9-61.6-3.4-84.6c-2.2-2.3-5.8,1.2-3.5,3.5c20.8,21.4,17.5,54.6,2.7,78.6c1.3-0.2,2.6-0.3,3.9-0.5 c-17.7-22.2-16.6-54.6-2.7-78.6C432.1,11.4,427.8,8.9,426.2,11.7z" class="st1"/></g></g><g id="XMLID_347_"><g id="XMLID_828_"><path id="XMLID_834_" d="M425.8,12.9c0.9,25.6,1.9,51.2,2.8,76.8c0.1,3.2,5.1,3.2,5,0c-0.9-25.6-1.9-51.2-2.8-76.8 C430.7,9.7,425.7,9.7,425.8,12.9L425.8,12.9z" class="st1"/></g></g></g><g id="XMLID_1721_"><g id="XMLID_1874_"><g id="XMLID_820_"><path id="XMLID_825_" d="M876.6,111.5c3.4,0.9,6.6,1.8,10.1,1.8c5.7,0,11.3-0.1,17-0.1c10.4-0.1,20.8-0.1,31.3-0.2 c-0.8-0.8-1.7-1.7-2.5-2.5c-0.7,5.8-1.9,11.8-2,17.7c0,0.7,0,1.2,0,1.9c0.1,1,0.8,4.2,0.8,2.3c-0.1,1.8-0.6,3.7-0.9,5.5 c-2,12.2-3.9,24.3-5.9,36.5c0.8-0.6,1.6-1.2,2.4-1.8c-13.8,0-27.6,0-41.4,0c0.2,1.6,0.4,3.3,0.7,4.9c0.6-0.3,1.2-0.5,1.9-0.8 c1.4-0.6,2-1.6,1.7-3.1c-1.7-11.5-3.3-22.9-5-34.4c-1.5-10.3-2.6-20.7-5.1-30.8c-0.8-3.1-5.6-1.8-4.8,1.3 c2.5,10.1,3.6,20.5,5.1,30.8c1.7,11.5,3.3,22.9,5,34.4c0.6-1,1.2-2.1,1.7-3.1c-0.6,0.3-1.2,0.5-1.9,0.8c-2.4,1-2.4,4.9,0.7,4.9 c13.8,0,27.6,0,41.4,0c1,0,2.2-0.8,2.4-1.8c2-12.3,3.9-24.6,5.9-36.9c0.3-1.7,0.8-3.5,0.8-5.3c0.1-1.9-0.7-4.3-0.7-5.3 c0-5.9,1.4-12,2-17.9c0.2-1.3-1.3-2.5-2.5-2.5c-10.1,0.1-20.2,0.1-30.3,0.2c-5.7,0-11.3,0.1-17,0.1c-4,0-5.2-0.5-9.7-1.6 C874.8,105.9,873.4,110.7,876.6,111.5z" class="st0"/></g></g><g id="XMLID_1866_"><g id="XMLID_814_"><path id="XMLID_818_" d="M893.9,110.1c-3.8-10.5-7-21.2-9.9-31.9c-4.6-17.1-9.8-36-7.9-53.9 c0.5-4.3,3.5-16.6,10.1-14.3c6.2,2.2,9.1,14.1,10.7,19.6c3.5,11.8,4.2,24.2,5.5,36.3c1.6,14.9,3.2,29.9,4.8,44.8 c0.8-0.8,1.7-1.7,2.5-2.5c-6.1,0-12.1,0-18.2,0c-3.2,0-3.2,5,0,5c6.1,0,12.1,0,18.2,0c1.2,0,2.6-1.1,2.5-2.5 c-1.5-14.4-3-28.8-4.6-43.3c-1.5-13.5-2.2-27.4-6.2-40.5c-2.1-6.9-5.1-16.5-11.6-20.7c-6.5-4.2-13,1.4-15.9,7.2 c-3.5,6.8-3.3,15.4-2.8,22.8c0.7,10.2,2.6,20.3,4.9,30.3c3.5,15.1,7.9,30.2,13.1,44.8C890.1,114.5,895,113.2,893.9,110.1z" class="st0"/></g></g><g id="XMLID_1858_"><g id="XMLID_807_"><path id="XMLID_811_" d="M927.9,109.7c3.3-11.1,6.2-22.4,8.6-33.7c3.8-17.3,8-36.3,5.8-54.1 c-0.8-6.6-3.1-12.9-9.1-16.5c-7.9-4.8-14.4,1.7-17.7,8.6c-6.8,14.1-6.3,30.9-7.4,46.3c-0.7,10.3-1.4,20.6-1.7,30.9 c-0.2,5.5-1.7,14.1,1,19.3c0.4,0.8,1.3,1.2,2.2,1.2c5.3,0,10.7,0,16,0c3.2,0,3.2-5,0-5c-5.3,0-10.7,0-16,0 c0.7,0.4,1.4,0.8,2.2,1.2c-1.4-2.7-0.5-10.7-0.4-14.4c0.2-8.4,0.7-16.7,1.2-25c0.8-12.4,0.8-25.8,3.1-38 c1-5.4,4.8-24.3,13.7-21.5c6.5,2.1,8,10.3,8.4,16.1c1.2,16.4-2.3,33.3-5.8,49.2c-2.5,11.5-5.4,23-8.8,34.2 C922.2,111.5,927,112.8,927.9,109.7z" class="st0"/></g></g><g id="XMLID_1850_"><g id="XMLID_800_"><path id="XMLID_804_" d="M929.8,49.4c7.4,1.7,14.8,3.4,22.2,5.1c3.1,0.7,4.5-4.1,1.3-4.8 c-7.4-1.7-14.8-3.4-22.2-5.1C928,43.9,926.6,48.7,929.8,49.4L929.8,49.4z" class="st0"/></g></g><g id="XMLID_1842_"><g id="XMLID_793_"><path id="XMLID_798_" d="M929.2,37.8c7.5-2.3,15.1-4.7,22.6-7c3.1-0.9,1.8-5.8-1.3-4.8c-7.5,2.3-15.1,4.7-22.6,7 C924.8,33.9,926.1,38.7,929.2,37.8L929.2,37.8z" class="st0"/></g></g><g id="XMLID_1834_"><g id="XMLID_786_"><path id="XMLID_791_" d="M914,3.4c2.1,7,4.2,14,6.3,21c0.9,3.1,5.7,1.8,4.8-1.3c-2.1-7-4.2-14-6.3-21 C917.9-1,913.1,0.3,914,3.4L914,3.4z" class="st0"/></g></g><g id="XMLID_1826_"><g id="XMLID_779_"><path id="XMLID_784_" d="M893.7,36.6c2.1-3.2,4.1-6.4,6.2-9.5c1.5-2.3,3-4.5,4.6-6.7c0.7-0.9,1.3-1.9,2-2.8 c0.2-0.3,1.2-1.3,0.8-1c2.7-1.7,0.2-6.1-2.5-4.3c-3.5,2.3-6,7.6-8.3,11c-2.4,3.6-4.8,7.3-7.2,10.9 C887.6,36.8,891.9,39.3,893.7,36.6L893.7,36.6z" class="st0"/></g></g><g id="XMLID_1818_"><g id="XMLID_772_"><path id="XMLID_777_" d="M863.4,8.6c5.3,7,10.6,14.1,15.9,21.1c1.9,2.5,6.3,0.1,4.3-2.5 c-5.3-7-10.6-14.1-15.9-21.1C865.8,3.5,861.5,6,863.4,8.6L863.4,8.6z" class="st0"/></g></g><g id="XMLID_1810_"><g id="XMLID_766_"><path id="XMLID_770_" d="M869.6,59.8c2.6-1.7,5.2-3.4,7.9-5c2-1.2,3.9-2.4,5.9-3.5c0.8-0.5,1.7-0.9,2.5-1.3 c0.3-0.2,1.4-0.4,0.8-0.4c3.2,0,3.2-5,0-5c-3.5,0.1-7.7,3.4-10.5,5.1c-3.1,1.9-6.1,3.8-9.2,5.8 C864.4,57.2,866.9,61.5,869.6,59.8L869.6,59.8z" class="st0"/></g></g><g id="XMLID_1802_"><g id="XMLID_759_"><path id="XMLID_763_" d="M885.6,59.7c2.1,6.7,4.2,13.3,6.3,20c1,3.1,5.8,1.8,4.8-1.3c-2.1-6.7-4.2-13.3-6.3-20 C889.4,55.3,884.6,56.6,885.6,59.7L885.6,59.7z" class="st0"/></g></g><g id="XMLID_1794_"><g id="XMLID_752_"><path id="XMLID_756_" d="M871.2,86.9c7.7,0.9,15.4,1.7,23.1,2.6c3.2,0.4,3.2-4.6,0-5c-7.7-0.9-15.4-1.7-23.1-2.6 C868,81.5,868,86.5,871.2,86.9L871.2,86.9z" class="st0"/></g></g><g id="XMLID_1786_"><g id="XMLID_745_"><path id="XMLID_750_" d="M875.6,100.2c5.8,0,11.7,0,17.5,0c3.2,0,3.2-5,0-5c-5.8,0-11.7,0-17.5,0 C872.4,95.2,872.4,100.2,875.6,100.2L875.6,100.2z" class="st0"/></g></g><g id="XMLID_1778_"><g id="XMLID_738_"><path id="XMLID_743_" d="M929.8,71.2c4.9-2.5,9.8-5,14.7-7.5c2.9-1.5,0.3-5.8-2.5-4.3c-4.9,2.5-9.8,5-14.7,7.5 C924.4,68.3,927,72.6,929.8,71.2L929.8,71.2z" class="st0"/></g></g><g id="XMLID_1770_"><g id="XMLID_731_"><path id="XMLID_736_" d="M920.2,90.7c8.5-3.1,17-6.2,25.5-9.3c3-1.1,1.7-5.9-1.3-4.8c-8.5,3.1-17,6.2-25.5,9.3 C915.9,87,917.2,91.8,920.2,90.7L920.2,90.7z" class="st0"/></g></g><g id="XMLID_1762_"><g id="XMLID_724_"><path id="XMLID_729_" d="M918.3,101.3c9.4-0.4,18.8-0.8,28.2-1.2c3.2-0.1,3.2-5.1,0-5c-9.4,0.4-18.8,0.8-28.2,1.2 C915.1,96.5,915.1,101.5,918.3,101.3L918.3,101.3z" class="st0"/></g></g><g id="XMLID_1754_"><g id="XMLID_718_"><path id="XMLID_722_" d="M903.4,95.9c5.1-7.5,10.1-14.9,15.2-22.4c1.8-2.7-2.5-5.2-4.3-2.5 c-5.1,7.5-10.1,14.9-15.2,22.4C897.3,96,901.6,98.5,903.4,95.9L903.4,95.9z" class="st0"/></g></g><g id="XMLID_1746_"><g id="XMLID_711_"><path id="XMLID_715_" d="M898.1,54.7c6.9,2.8,13.9,5.5,20.8,8.3c3,1.2,4.3-3.6,1.3-4.8c-6.9-2.8-13.9-5.5-20.8-8.3 C896.4,48.7,895.1,53.5,898.1,54.7L898.1,54.7z" class="st0"/></g></g><g id="XMLID_1738_"><g id="XMLID_704_"><path id="XMLID_708_" d="M914.9,126.2c-0.8,0.8-1.1,2-0.8,3.1c0.3,1.1,1.1,1.9,2.2,2.2c0.8,0.3,1.9,0,2.4-0.6 c0.8-0.9,1-1.9,0.8-3.1c-0.1-0.6-0.7-1.2-1.1-1.5c-0.5-0.3-1.3-0.4-1.9-0.3c-0.6,0.2-1.2,0.6-1.5,1.1c-0.3,0.6-0.4,1.2-0.3,1.9 c0.2-0.6,0.3-1.2,0.5-1.8c0.8-0.2,1.6-0.4,2.4-0.6c1.3,0.4,1.9,2,0.8,3.1c0.9-0.9,1-2.6,0-3.5 C917.4,125.3,915.9,125.2,914.9,126.2L914.9,126.2z" class="st0"/></g></g><g id="XMLID_1730_"><g id="XMLID_697_"><path id="XMLID_702_" d="M893.5,126.7c-0.3,0.4-0.5,0.6-0.6,1.1c-0.2,0.7-0.1,1.4,0.3,2c0.5,0.8,1.3,1.3,2.2,1.5 c2.4,0.3,3.9-2.3,2.8-4.3c-0.7-1.1-2.3-1.6-3.4-0.9c-1.1,0.7-1.6,2.2-0.9,3.4c-0.1-0.5-0.2-1-0.2-1.5c0.2-0.4,0.4-0.7,0.6-1.1 c0.3-0.2,0.5-0.3,0.8-0.5c0.4,0,0.9,0,1.3,0c0.5,0.5,0.9,0.9,1.4,1.4c-0.1,0.6-0.2,1.3-0.3,1.9c0.1-0.2,0.2-0.3,0.4-0.5 c0.4-0.5,0.4-1.4,0.3-1.9c-0.2-0.6-0.6-1.2-1.1-1.5c-0.6-0.3-1.3-0.5-1.9-0.3C894.3,125.8,893.9,126.1,893.5,126.7L893.5,126.7 z" class="st0"/></g></g><g id="XMLID_1722_"><g id="XMLID_690_"><path id="XMLID_695_" d="M918.1,140.9c0.1,6.8-4.3,14.1-11.2,15.6c-7.7,1.8-9.4-10.7-9.5-16.1 c-0.1-3.2-5.1-3.2-5,0c0.1,8.3,2.7,22,13.5,21.3c10.3-0.7,17.4-11.1,17.2-20.8C923.1,137.6,918.1,137.6,918.1,140.9 L918.1,140.9z" class="st0"/></g></g></g><g id="XMLID_1560_"><g id="XMLID_1713_"><g id="XMLID_683_"><path id="XMLID_688_" d="M1463.1,111.5c3.4,0.9,6.6,1.8,10.1,1.8c5.7,0,11.3-0.1,17-0.1 c10.4-0.1,20.8-0.1,31.3-0.2c-0.8-0.8-1.7-1.7-2.5-2.5c-0.7,5.8-1.9,11.8-2,17.7c0,0.7,0,1.2,0,1.9c0.1,1,0.8,4.2,0.8,2.3 c-0.1,1.8-0.6,3.7-0.9,5.5c-2,12.2-3.9,24.3-5.9,36.5c0.8-0.6,1.6-1.2,2.4-1.8c-13.8,0-27.6,0-41.4,0c0.2,1.6,0.4,3.3,0.7,4.9 c0.6-0.3,1.2-0.5,1.9-0.8c1.4-0.6,2-1.6,1.7-3.1c-1.7-11.5-3.3-22.9-5-34.4c-1.5-10.3-2.6-20.7-5.1-30.8 c-0.8-3.1-5.6-1.8-4.8,1.3c2.5,10.1,3.6,20.5,5.1,30.8c1.7,11.5,3.3,22.9,5,34.4c0.6-1,1.2-2.1,1.7-3.1 c-0.6,0.3-1.2,0.5-1.9,0.8c-2.4,1-2.4,4.9,0.7,4.9c13.8,0,27.6,0,41.4,0c1,0,2.2-0.8,2.4-1.8c2-12.3,3.9-24.6,5.9-36.9 c0.3-1.7,0.8-3.5,0.8-5.3c0.1-1.9-0.7-4.3-0.7-5.3c0-5.9,1.4-12,2-17.9c0.2-1.3-1.3-2.5-2.5-2.5c-10.1,0.1-20.2,0.1-30.3,0.2 c-5.7,0-11.3,0.1-17,0.1c-4,0-5.2-0.5-9.7-1.6C1461.3,105.9,1459.9,110.7,1463.1,111.5z" class="st0"/></g></g><g id="XMLID_1705_"><g id="XMLID_676_"><path id="XMLID_681_" d="M1480.4,110.1c-3.8-10.5-7-21.2-9.9-31.9c-4.6-17.1-9.8-36-7.9-53.9 c0.5-4.3,3.5-16.6,10.1-14.3c6.2,2.2,9.1,14.1,10.7,19.6c3.5,11.8,4.2,24.2,5.5,36.3c1.6,14.9,3.2,29.9,4.8,44.8 c0.8-0.8,1.7-1.7,2.5-2.5c-6.1,0-12.1,0-18.2,0c-3.2,0-3.2,5,0,5c6.1,0,12.1,0,18.2,0c1.2,0,2.6-1.1,2.5-2.5 c-1.5-14.4-3-28.8-4.6-43.3c-1.5-13.5-2.2-27.4-6.2-40.5c-2.1-6.9-5.1-16.5-11.6-20.7c-6.5-4.2-13,1.4-15.9,7.2 c-3.5,6.8-3.3,15.4-2.8,22.8c0.7,10.2,2.6,20.3,4.9,30.3c3.5,15.1,7.9,30.2,13.1,44.8C1476.6,114.5,1481.5,113.2,1480.4,110.1z" class="st0"/></g></g><g id="XMLID_1697_"><g id="XMLID_670_"><path id="XMLID_674_" d="M1514.4,109.7c3.3-11.1,6.2-22.4,8.6-33.7c3.8-17.3,8-36.3,5.8-54.1 c-0.8-6.6-3.1-12.9-9.1-16.5c-7.9-4.8-14.4,1.7-17.7,8.6c-6.8,14.1-6.3,30.9-7.4,46.3c-0.7,10.3-1.4,20.6-1.7,30.9 c-0.2,5.5-1.7,14.1,1,19.3c0.4,0.8,1.3,1.2,2.2,1.2c5.3,0,10.7,0,16,0c3.2,0,3.2-5,0-5c-5.3,0-10.7,0-16,0 c0.7,0.4,1.4,0.8,2.2,1.2c-1.4-2.7-0.5-10.7-0.4-14.4c0.2-8.4,0.7-16.7,1.2-25c0.8-12.4,0.8-25.8,3.1-38 c1-5.4,4.8-24.3,13.7-21.5c6.5,2.1,8,10.3,8.4,16.1c1.2,16.4-2.3,33.3-5.8,49.2c-2.5,11.5-5.4,23-8.8,34.2 C1508.7,111.5,1513.5,112.8,1514.4,109.7z" class="st0"/></g></g><g id="XMLID_1689_"><g id="XMLID_662_"><path id="XMLID_666_" d="M1516.3,49.4c7.4,1.7,14.8,3.4,22.2,5.1c3.1,0.7,4.5-4.1,1.3-4.8 c-7.4-1.7-14.8-3.4-22.2-5.1C1514.5,43.9,1513.1,48.7,1516.3,49.4L1516.3,49.4z" class="st0"/></g></g><g id="XMLID_1681_"><g id="XMLID_655_"><path id="XMLID_659_" d="M1515.7,37.8c7.5-2.3,15.1-4.7,22.6-7c3.1-0.9,1.8-5.8-1.3-4.8c-7.5,2.3-15.1,4.7-22.6,7 C1511.3,33.9,1512.6,38.7,1515.7,37.8L1515.7,37.8z" class="st0"/></g></g><g id="XMLID_1673_"><g id="XMLID_648_"><path id="XMLID_653_" d="M1500.5,3.4c2.1,7,4.2,14,6.3,21c0.9,3.1,5.7,1.8,4.8-1.3c-2.1-7-4.2-14-6.3-21 C1504.4-1,1499.6,0.3,1500.5,3.4L1500.5,3.4z" class="st0"/></g></g><g id="XMLID_1665_"><g id="XMLID_641_"><path id="XMLID_646_" d="M1480.2,36.6c2.1-3.2,4.1-6.4,6.2-9.5c1.5-2.3,3-4.5,4.6-6.7c0.7-0.9,1.3-1.9,2-2.8 c0.2-0.3,1.2-1.3,0.8-1c2.7-1.7,0.2-6.1-2.5-4.3c-3.5,2.3-6,7.6-8.3,11c-2.4,3.6-4.8,7.3-7.2,10.9 C1474.1,36.8,1478.4,39.3,1480.2,36.6L1480.2,36.6z" class="st0"/></g></g><g id="XMLID_1657_"><g id="XMLID_634_"><path id="XMLID_639_" d="M1449.9,8.6c5.3,7,10.6,14.1,15.9,21.1c1.9,2.5,6.3,0.1,4.3-2.5 c-5.3-7-10.6-14.1-15.9-21.1C1452.3,3.5,1448,6,1449.9,8.6L1449.9,8.6z" class="st0"/></g></g><g id="XMLID_1649_"><g id="XMLID_627_"><path id="XMLID_632_" d="M1456.1,59.8c2.6-1.7,5.2-3.4,7.9-5c2-1.2,3.9-2.4,5.9-3.5c0.8-0.5,1.7-0.9,2.5-1.3 c0.3-0.2,1.4-0.4,0.8-0.4c3.2,0,3.2-5,0-5c-3.5,0.1-7.7,3.4-10.5,5.1c-3.1,1.9-6.1,3.8-9.2,5.8 C1450.9,57.2,1453.4,61.5,1456.1,59.8L1456.1,59.8z" class="st0"/></g></g><g id="XMLID_1641_"><g id="XMLID_621_"><path id="XMLID_625_" d="M1472.1,59.7c2.1,6.7,4.2,13.3,6.3,20c1,3.1,5.8,1.8,4.8-1.3c-2.1-6.7-4.2-13.3-6.3-20 C1475.9,55.3,1471.1,56.6,1472.1,59.7L1472.1,59.7z" class="st0"/></g></g><g id="XMLID_1633_"><g id="XMLID_614_"><path id="XMLID_618_" d="M1457.7,86.9c7.7,0.9,15.4,1.7,23.1,2.6c3.2,0.4,3.2-4.6,0-5c-7.7-0.9-15.4-1.7-23.1-2.6 C1454.5,81.5,1454.5,86.5,1457.7,86.9L1457.7,86.9z" class="st0"/></g></g><g id="XMLID_1625_"><g id="XMLID_607_"><path id="XMLID_611_" d="M1462.1,100.2c5.8,0,11.7,0,17.5,0c3.2,0,3.2-5,0-5c-5.8,0-11.7,0-17.5,0 C1458.9,95.2,1458.9,100.2,1462.1,100.2L1462.1,100.2z" class="st0"/></g></g><g id="XMLID_1617_"><g id="XMLID_600_"><path id="XMLID_605_" d="M1516.3,71.2c4.9-2.5,9.8-5,14.7-7.5c2.9-1.5,0.3-5.8-2.5-4.3c-4.9,2.5-9.8,5-14.7,7.5 C1510.9,68.3,1513.5,72.6,1516.3,71.2L1516.3,71.2z" class="st0"/></g></g><g id="XMLID_1609_"><g id="XMLID_593_"><path id="XMLID_598_" d="M1506.7,90.7c8.5-3.1,17-6.2,25.5-9.3c3-1.1,1.7-5.9-1.3-4.8c-8.5,3.1-17,6.2-25.5,9.3 C1502.4,87,1503.7,91.8,1506.7,90.7L1506.7,90.7z" class="st0"/></g></g><g id="XMLID_1601_"><g id="XMLID_586_"><path id="XMLID_591_" d="M1504.8,101.3c9.4-0.4,18.8-0.8,28.2-1.2c3.2-0.1,3.2-5.1,0-5c-9.4,0.4-18.8,0.8-28.2,1.2 C1501.6,96.5,1501.6,101.5,1504.8,101.3L1504.8,101.3z" class="st0"/></g></g><g id="XMLID_1593_"><g id="XMLID_578_"><path id="XMLID_584_" d="M1489.9,95.9c5.1-7.5,10.1-14.9,15.2-22.4c1.8-2.7-2.5-5.2-4.3-2.5 c-5.1,7.5-10.1,14.9-15.2,22.4C1483.8,96,1488.1,98.5,1489.9,95.9L1489.9,95.9z" class="st0"/></g></g><g id="XMLID_1585_"><g id="XMLID_572_"><path id="XMLID_576_" d="M1484.6,54.7c6.9,2.8,13.9,5.5,20.8,8.3c3,1.2,4.3-3.6,1.3-4.8 c-6.9-2.8-13.9-5.5-20.8-8.3C1482.9,48.7,1481.6,53.5,1484.6,54.7L1484.6,54.7z" class="st0"/></g></g><g id="XMLID_1577_"><g id="XMLID_565_"><path id="XMLID_569_" d="M1501.4,126.2c-0.8,0.8-1.1,2-0.8,3.1c0.3,1.1,1.1,1.9,2.2,2.2c0.8,0.3,1.9,0,2.4-0.6 c0.8-0.9,1-1.9,0.8-3.1c-0.1-0.6-0.7-1.2-1.1-1.5c-0.5-0.3-1.3-0.4-1.9-0.3c-0.6,0.2-1.2,0.6-1.5,1.1c-0.3,0.6-0.4,1.2-0.3,1.9 c0.2-0.6,0.3-1.2,0.5-1.8c0.8-0.2,1.6-0.4,2.4-0.6c1.3,0.4,1.9,2,0.8,3.1c0.9-0.9,1-2.6,0-3.5 C1503.9,125.3,1502.4,125.2,1501.4,126.2L1501.4,126.2z" class="st0"/></g></g><g id="XMLID_1569_"><g id="XMLID_558_"><path id="XMLID_562_" d="M1480,126.7c-0.3,0.4-0.5,0.6-0.6,1.1c-0.2,0.7-0.1,1.4,0.3,2c0.5,0.8,1.3,1.3,2.2,1.5 c2.4,0.3,3.9-2.3,2.8-4.3c-0.7-1.1-2.3-1.6-3.4-0.9c-1.1,0.7-1.6,2.2-0.9,3.4c-0.1-0.5-0.2-1-0.2-1.5c0.2-0.4,0.4-0.7,0.6-1.1 c0.3-0.2,0.5-0.3,0.8-0.5c0.4,0,0.9,0,1.3,0c0.5,0.5,0.9,0.9,1.4,1.4c-0.1,0.6-0.2,1.3-0.3,1.9c0.1-0.2,0.2-0.3,0.4-0.5 c0.4-0.5,0.4-1.4,0.3-1.9c-0.2-0.6-0.6-1.2-1.1-1.5c-0.6-0.3-1.3-0.5-1.9-0.3C1480.8,125.8,1480.4,126.1,1480,126.7L1480,126.7 z" class="st0"/></g></g><g id="XMLID_1561_"><g id="XMLID_551_"><path id="XMLID_556_" d="M1504.6,140.9c0.1,6.8-4.3,14.1-11.2,15.6c-7.7,1.8-9.4-10.7-9.5-16.1 c-0.1-3.2-5.1-3.2-5,0c0.1,8.3,2.7,22,13.5,21.3c10.3-0.7,17.4-11.1,17.2-20.8C1509.6,137.6,1504.6,137.6,1504.6,140.9 L1504.6,140.9z" class="st0"/></g></g></g><g id="XMLID_1471_"><g id="XMLID_1552_"><g id="XMLID_799_"><path id="XMLID_826_" d="M986.2,175c-1.6-15.4-3.1-30.8-4.7-46.2c-0.8,0.8-1.7,1.7-2.5,2.5c18.5,0,37,0,55.5,0 c-0.8-1.1-1.6-2.1-2.4-3.2c-3,15.4-6.1,30.8-9.1,46.2c0.8-0.6,1.6-1.2,2.4-1.8c-6.8,0.1-13.6,0.1-20.3,0.1 c-7.4,0-14.7-1.1-22.1,0c-3.2,0.5-1.8,5.3,1.3,4.8c7.3-1.1,15,0.2,22.4,0.2c6.2,0,12.4,0,18.7-0.1c1,0,2.2-0.8,2.4-1.8 c3-15.4,6.1-30.8,9.1-46.2c0.3-1.6-0.7-3.2-2.4-3.2c-18.5,0-37,0-55.5,0c-1.3,0-2.6,1.1-2.5,2.5c1.6,15.4,3.1,30.8,4.7,46.2 C981.5,178.2,986.6,178.2,986.2,175z" class="st1"/></g></g><g id="XMLID_1544_"><g id="XMLID_542_"><path id="XMLID_548_" d="M982.9,169.6c16.3,0.3,32.6,0.6,48.9,0.9c3.2,0.1,3.2-4.9,0-5 c-16.3-0.3-32.6-0.6-48.9-0.9C979.7,164.5,979.7,169.5,982.9,169.6L982.9,169.6z" class="st1"/></g></g><g id="XMLID_1536_"><g id="XMLID_534_"><path id="XMLID_540_" d="M987,162.3c15.5,0.4,30.9,0.8,46.4,1.2c3.2,0.1,3.2-4.9,0-5c-15.5-0.4-30.9-0.8-46.4-1.2 C983.8,157.3,983.8,162.3,987,162.3L987,162.3z" class="st1"/></g></g><g id="XMLID_1528_"><g id="XMLID_526_"><path id="XMLID_532_" d="M989.6,154.4c16.3,0.6,32.7,1.2,49,1.9c3.2,0.1,3.2-4.9,0-5c-16.3-0.6-32.7-1.2-49-1.9 C986.3,149.3,986.3,154.3,989.6,154.4L989.6,154.4z" class="st1"/></g></g><g id="XMLID_1520_"><g id="XMLID_518_"><path id="XMLID_524_" d="M990.7,145.5c15.6,0.6,31.1,1.2,46.7,1.9c3.2,0.1,3.2-4.9,0-5 c-15.6-0.6-31.1-1.2-46.7-1.9C987.5,140.4,987.5,145.4,990.7,145.5L990.7,145.5z" class="st1"/></g></g><g id="XMLID_1512_"><g id="XMLID_511_"><path id="XMLID_516_" d="M993.2,138.5c15.9,0,31.9,0,47.8,0c3.2,0,3.2-5,0-5c-15.9,0-31.9,0-47.8,0 C990,133.5,990,138.5,993.2,138.5L993.2,138.5z" class="st1"/></g></g><g id="XMLID_1504_"><g id="XMLID_504_"><path id="XMLID_509_" d="M1008.1,126.7c-17.2-10.2-34.4-20.4-51.6-30.6c-1.5-0.9-3.1,0-3.7,1.5 c-1.9,5.2,0.2,11.4,3.3,15.6c10.8,14.6,34.3,16.8,50.7,18.1c3.2,0.3,3.2-4.7,0-5c-10.9-0.9-22-2.4-32.2-6.4 c-5.3-2.1-11-5-14.5-9.7c-2.5-3.3-3.7-7.9-2.5-11.3c-1.2,0.5-2.4,1-3.7,1.5c17.2,10.2,34.4,20.4,51.6,30.6 C1008.3,132.6,1010.9,128.3,1008.1,126.7z" class="st1"/></g></g><g id="XMLID_1496_"><g id="XMLID_497_"><path id="XMLID_502_" d="M1008.1,131c13-7.5,26-14.9,39-22.4c-1.1-0.3-2.3-0.6-3.4-0.9c-0.1-0.2,0.2,0.5,0.2,0.9 c-0.1,1.4-0.9,2.9-2.2,4.3c-2.9,3.1-7.2,5.1-11.1,6.7c-7.8,3.2-16.1,5.1-24.4,6.8c-3.2,0.6-1.8,5.5,1.3,4.8 c9.2-1.9,18.4-4.1,26.9-7.9c4.3-1.9,8.7-4.3,11.7-8c2.2-2.7,3.8-6.9,1.8-10.2c-0.7-1.2-2.2-1.6-3.4-0.9 c-13,7.5-26,14.9-39,22.4C1002.8,128.3,1005.3,132.6,1008.1,131z" class="st1"/></g></g><g id="XMLID_1488_"><g id="XMLID_490_"><path id="XMLID_495_" d="M1009.2,129.5c8.1-27.2,16.2-54.4,24.3-81.6c1.2-3.9,2.3-7.8,3.5-11.7 c-1.5,0.2-3,0.4-4.6,0.6c5.3,7.8,7.9,18.2,8.2,27.5c1,26.1-16,47.4-35.6,62.7c-2.5,2,1,5.5,3.5,3.5 c20.3-16,37.8-38.3,37.1-65.4c-0.3-10.5-3-22.2-9-31c-1.2-1.8-3.9-1.5-4.6,0.6c-8.1,27.2-16.2,54.4-24.3,81.6 c-1.2,3.9-2.3,7.8-3.5,11.7C1003.5,131.2,1008.3,132.6,1009.2,129.5z" class="st1"/></g></g><g id="XMLID_1480_"><g id="XMLID_483_"><path id="XMLID_488_" d="M1009.3,128.8c0.6-13.6,1.4-27.2,2.3-40.8c1.4-20.6,2.5-41.7,6.7-61.9 c0.3-1.6-0.7-3.1-2.4-3.2c-4.4-0.1-8.5,3.5-11,6.8c-8.7,11.7-8.6,29.4-8.1,43.2c0.7,19,3.8,37.9,7.6,56.5 c0.6,3.2,5.5,1.8,4.8-1.3c-5.1-25.1-10.5-52.7-6.4-78.4c1.2-7.4,3.7-17.5,10.6-21.1c0.3-0.2,1.3-0.2,2.1-0.7 c0.1-0.1-0.4,0,0.4,0c-0.8-1.1-1.6-2.1-2.4-3.2c-4.2,20.3-5.4,41.4-6.8,62.1c-1,14-1.8,27.9-2.4,41.9 C1004.2,132,1009.2,132,1009.3,128.8z" class="st1"/></g></g><g id="XMLID_1472_"><g id="XMLID_475_"><path id="XMLID_479_" d="M1009.2,128.2c-8-27.2-16-54.4-23.6-81.6c-1.5-5.3-3.2-10.7-4.2-16.1 c-0.3-1.8-3-2.5-4.2-1.1c-15.1,17.6-10.1,45.4-0.5,64.1c7.1,13.9,17.3,26.1,28.3,37.2c2.3,2.3,5.8-1.3,3.5-3.5 c-18.2-18.3-36.8-42.4-35.8-69.7c0.2-6.3,1.6-12.6,4.3-18.2c0.8-1.7,1.7-3.3,2.7-4.9c0.6-1,0.8-1.2,1-1.4 c-1.4-0.4-2.8-0.7-4.2-1.1c2.3,12.4,6.6,24.6,10,36.8c4.7,16.6,9.6,33.1,14.4,49.6c1.1,3.8,2.2,7.6,3.3,11.4 C1005.3,132.6,1010.1,131.2,1009.2,128.2z" class="st1"/></g></g></g><g id="XMLID_1358_"><g id="XMLID_1463_"><g id="XMLID_464_"><path id="XMLID_470_" d="M1094.7,134.7c7.1,0,14.6,0.8,21.7,0c2.6-0.3,5.3-1.5,5.4,2.2c0.1,2.9-1.4,6-2.1,8.8 c-0.7,2.9-1.4,5.8-2.2,8.7c-1.5,5.5-3.6,11.2-7.9,15.1c-5.6,5.2-14.1,6-21.3,4.8c-12-2.1-20.2-12.7-19.2-24.9 c0.3-3.3-0.9-9.2,1.6-11.7c2.9-2.8,10.7-1.7,14.5-2C1088.4,135.4,1091.6,135.1,1094.7,134.7c3.2-0.4,3.2-5.4,0-5 c-3.7,0.5-7.4,0.8-11.1,1.1c-4.5,0.4-10.4-0.5-14.5,1.9c-5,2.9-4.8,8.4-4.6,13.3c0.1,1.6,0.1-0.4-0.1,1.1 c-0.2,1.4-0.3,2.9-0.3,4.3c0,3.2,0.6,6.4,1.6,9.4c2.2,6.5,6.7,12.1,12.8,15.3c14.2,7.5,33.3,3.7,40.5-11.3 c3-6.2,4.3-13.1,6.1-19.7c1.3-5,3.9-12.9-2.5-15.5c-2.1-0.8-4.1-0.5-6.3-0.2c-1.3,0.2,0,0.1-0.5,0.1c-1,0.1-2.1,0-3.2,0 c-5.9,0-11.9,0-17.8,0C1091.5,129.7,1091.5,134.7,1094.7,134.7z" class="st0"/></g></g><g id="XMLID_1455_"><g id="XMLID_457_"><path id="XMLID_462_" d="M1107.3,131.7c1.3-20.1,3.6-40.7,9-60.1c1.4-5.2,5.4-22.1,13.4-20.8 c11.4,1.8,3.3,27.2,1.6,33.2c-4.6,16.3-11.3,31.9-17.7,47.6c0.8-0.6,1.6-1.2,2.4-1.8c-3.7-0.2-7.5-0.4-11.2-0.5 c-3.2-0.2-3.2,4.8,0,5c3.7,0.2,7.5,0.4,11.2,0.5c1.2,0.1,2-0.8,2.4-1.8c6.3-15.5,12.9-30.9,17.6-47.1 c2.8-9.7,9.6-30.6-1.2-38.2c-20.8-14.6-28.1,44.6-29.4,54c-1.4,10-2.5,20-3.1,30.1C1102.1,134.9,1107.1,134.9,1107.3,131.7z" class="st0"/></g></g><g id="XMLID_1447_"><g id="XMLID_449_"><path id="XMLID_455_" d="M1081.7,133c-2.2-10.9-3.9-22-5.2-33c-2.3-18.7-4.4-38.7-1.2-57.4c1-5.9,2.7-13.7,8-17.3 c4.3-3,8.5-1.3,11,3c3.7,6.4,4.5,14.6,5.1,21.7c0.9,9.8,0.8,19.7,0.5,29.5c-0.6,17.6-2.3,35.3-4.5,52.8 c0.8-0.8,1.7-1.7,2.5-2.5c-6.2,0.5-12.4,0.9-18.6,1.4c-3.2,0.2-3.2,5.2,0,5c6.2-0.5,12.4-0.9,18.6-1.4c1.5-0.1,2.3-1.1,2.5-2.5 c2.1-16.7,3.7-33.4,4.4-50.2c0.4-10.7,0.6-21.4-0.4-32.1c-0.7-7.9-1.7-16.4-5.4-23.5c-2.6-5-7.2-8.6-13.1-7.5 c-6.4,1.2-10.4,6.6-12.7,12.4c-3.2,8.2-4,17.4-4.2,26.1c-0.3,10.7,0.3,21.5,1.4,32.1c1.5,15,3.6,30.1,6.6,44.9 C1077.5,137.5,1082.3,136.1,1081.7,133z" class="st0"/></g></g><g id="XMLID_1439_"><g id="XMLID_442_"><path id="XMLID_447_" d="M1117,35.2c0.6,11.4,1.2,22.9,1.8,34.3c0.2,3.2,5.2,3.2,5,0c-0.6-11.4-1.2-22.9-1.8-34.3 C1121.9,32,1116.9,32,1117,35.2L1117,35.2z" class="st0"/></g></g><g id="XMLID_1431_"><g id="XMLID_434_"><path id="XMLID_440_" d="M1125.8,87.3c5.9-0.8,11.9-1.6,17.8-2.3c3.1-0.4,3.2-5.4,0-5c-5.9,0.8-11.9,1.6-17.8,2.3 C1122.7,82.7,1122.6,87.7,1125.8,87.3L1125.8,87.3z" class="st0"/></g></g><g id="XMLID_1423_"><g id="XMLID_427_"><path id="XMLID_432_" d="M1116.7,116.7c6.2-0.9,12.5-1.9,18.7-2.8c3.2-0.5,1.8-5.3-1.3-4.8 c-6.2,0.9-12.5,1.9-18.7,2.8C1112.2,112.3,1113.5,117.2,1116.7,116.7L1116.7,116.7z" class="st0"/></g></g><g id="XMLID_1415_"><g id="XMLID_419_"><path id="XMLID_425_" d="M1093.7,81.4c7.5,6.2,14.9,12.4,22.4,18.5c2.5,2,6-1.5,3.5-3.5 c-7.5-6.2-14.9-12.4-22.4-18.5C1094.7,75.8,1091.2,79.4,1093.7,81.4L1093.7,81.4z" class="st0"/></g></g><g id="XMLID_1407_"><g id="XMLID_413_"><path id="XMLID_417_" d="M1093,62.9c6.1-5.8,12.1-11.7,18.2-17.5c2.3-2.2-1.2-5.8-3.5-3.5 c-6.1,5.8-12.1,11.7-18.2,17.5C1087.1,61.6,1090.6,65.1,1093,62.9L1093,62.9z" class="st0"/></g></g><g id="XMLID_1399_"><g id="XMLID_407_"><path id="XMLID_411_" d="M1088.8,13.5c-1.4,5.2-2.8,10.5-4.2,15.7c-0.8,3.1,4,4.4,4.8,1.3 c1.4-5.2,2.8-10.5,4.2-15.7C1094.4,11.8,1089.6,10.4,1088.8,13.5L1088.8,13.5z" class="st0"/></g></g><g id="XMLID_1391_"><g id="XMLID_400_"><path id="XMLID_405_" d="M1064.8,27.5c6.8,7.5,13.6,15,20.4,22.4c2.2,2.4,5.7-1.2,3.5-3.5 c-6.8-7.5-13.6-15-20.4-22.4C1066.1,21.6,1062.6,25.1,1064.8,27.5L1064.8,27.5z" class="st0"/></g></g><g id="XMLID_1383_"><g id="XMLID_394_"><path id="XMLID_398_" d="M1057.1,77.6c3.4-2,6.7-4,10.2-5.9c3.2-1.8,9.2-6.3,12.7-6.3c3.2,0,3.2-5,0-5 c-4.5,0-9.8,4-13.5,6c-4,2.2-8,4.5-11.9,6.9C1051.8,74.9,1054.3,79.3,1057.1,77.6L1057.1,77.6z" class="st0"/></g></g><g id="XMLID_1375_"><g id="XMLID_388_"><path id="XMLID_392_" d="M1080.3,73.3c0.5,8.9,0.9,17.8,1.4,26.7c0.2,3.2,5.2,3.2,5,0c-0.5-8.9-0.9-17.8-1.4-26.7 C1085.1,70.1,1080.1,70.1,1080.3,73.3L1080.3,73.3z" class="st0"/></g></g><g id="XMLID_1367_"><g id="XMLID_382_"><path id="XMLID_386_" d="M1065.9,122.3c5.9,1.1,11.8,2.2,17.6,3.3c3.1,0.6,4.5-4.2,1.3-4.8 c-5.9-1.1-11.8-2.2-17.6-3.3C1064.1,116.9,1062.7,121.7,1065.9,122.3L1065.9,122.3z" class="st0"/></g></g><g id="XMLID_1359_"><g id="XMLID_376_"><path id="XMLID_380_" d="M1104.5,109c-0.9,3.3-1.9,6.7-2.9,10c-0.8,2.4-1.6,4.8-2.6,7.2c-0.4,1-1,1.9-1.4,2.9 c-0.6,1.3-0.7,0.6-0.4,0.7c0.4,1.6,0.8,3.1,1.3,4.7c-1.6,0.9-0.5,0.2,0.6,0.2c0.7,0,1.5-0.1,2.2-0.1c1.2-0.1,2.3-0.1,3.5-0.2 c1.8-0.1,3.3-2.1,2.2-3.8c-4.4-6.7-0.2-13.6,2.3-20.1C1110.5,107.4,1105.6,106.1,1104.5,109c-3.1,7.9-7.2,15.8-1.8,23.9 c0.7-1.3,1.4-2.5,2.2-3.8c-2.6,0.1-6.5-0.4-8.9,0.9c-2.3,1.3-1,4.5,1.3,4.7c4.6,0.4,6.5-6.8,7.7-10.1c1.7-4.7,3.1-9.5,4.4-14.3 C1110.1,107.2,1105.3,105.9,1104.5,109z" class="st0"/></g></g></g><g id="XMLID_1245_"><g id="XMLID_1350_"><g id="XMLID_441_"><path id="XMLID_471_" d="M1586.7,134.7c7.1,0,14.6,0.8,21.7,0c2.5-0.3,5.3-1.5,5.4,2.2c0.1,2.9-1.4,6-2.1,8.8 c-0.7,2.9-1.4,5.8-2.2,8.7c-1.5,5.5-3.6,11.2-7.9,15.1c-5.6,5.2-14.1,6-21.3,4.8c-12-2.1-20.2-12.7-19.2-24.9 c0.3-3.3-0.9-9.2,1.6-11.7c2.9-2.8,10.7-1.7,14.5-2C1580.5,135.4,1583.6,135.1,1586.7,134.7c3.2-0.4,3.2-5.4,0-5 c-3.7,0.5-7.4,0.8-11.1,1.1c-4.5,0.4-10.4-0.5-14.5,1.9c-5,2.9-4.8,8.4-4.6,13.3c0.1,1.6,0.1-0.4-0.1,1.1 c-0.2,1.4-0.3,2.9-0.3,4.3c0,3.2,0.6,6.4,1.6,9.4c2.2,6.5,6.7,12.1,12.8,15.3c14.2,7.5,33.3,3.7,40.5-11.3 c3-6.2,4.3-13.1,6.1-19.7c1.3-5,3.9-12.9-2.5-15.5c-2.1-0.8-4.1-0.5-6.3-0.2c-1.3,0.2,0,0.1-0.5,0.1c-1,0.1-2.1,0-3.2,0 c-5.9,0-11.9,0-17.8,0C1583.5,129.7,1583.5,134.7,1586.7,134.7z" class="st1"/></g></g><g id="XMLID_1342_"><g id="XMLID_368_"><path id="XMLID_373_" d="M1599.4,131.7c1.3-20.1,3.6-40.7,9-60.1c1.4-5.2,5.4-22.1,13.4-20.8 c11.4,1.8,3.3,27.2,1.6,33.2c-4.6,16.3-11.3,31.9-17.7,47.6c0.8-0.6,1.6-1.2,2.4-1.8c-3.7-0.2-7.5-0.4-11.2-0.5 c-3.2-0.2-3.2,4.8,0,5c3.7,0.2,7.5,0.4,11.2,0.5c1.2,0.1,2-0.8,2.4-1.8c6.3-15.5,12.9-30.9,17.6-47.1 c2.8-9.7,9.6-30.6-1.2-38.2c-20.8-14.6-28.1,44.6-29.4,54c-1.4,10-2.5,20-3.1,30.1C1594.2,134.9,1599.2,134.9,1599.4,131.7z" class="st1"/></g></g><g id="XMLID_1334_"><g id="XMLID_361_"><path id="XMLID_366_" d="M1573.7,133c-2.2-10.9-3.9-22-5.2-33c-2.3-18.7-4.4-38.7-1.2-57.4c1-5.9,2.7-13.7,8-17.3 c4.3-3,8.5-1.3,11,3c3.7,6.4,4.5,14.6,5.1,21.7c0.9,9.8,0.8,19.7,0.5,29.5c-0.6,17.6-2.3,35.3-4.5,52.8 c0.8-0.8,1.7-1.7,2.5-2.5c-6.2,0.5-12.4,0.9-18.6,1.4c-3.2,0.2-3.2,5.2,0,5c6.2-0.5,12.4-0.9,18.6-1.4c1.5-0.1,2.3-1.1,2.5-2.5 c2.1-16.7,3.7-33.4,4.4-50.2c0.4-10.7,0.6-21.4-0.4-32.1c-0.7-7.9-1.7-16.4-5.4-23.5c-2.6-5-7.2-8.6-13.1-7.5 c-6.4,1.2-10.4,6.6-12.7,12.4c-3.2,8.2-4,17.4-4.2,26.1c-0.3,10.7,0.3,21.5,1.4,32.1c1.5,15,3.6,30.1,6.6,44.9 C1569.5,137.5,1574.4,136.1,1573.7,133z" class="st1"/></g></g><g id="XMLID_1326_"><g id="XMLID_354_"><path id="XMLID_359_" d="M1609.1,35.2c0.6,11.4,1.2,22.9,1.8,34.3c0.2,3.2,5.2,3.2,5,0 c-0.6-11.4-1.2-22.9-1.8-34.3C1613.9,32,1608.9,32,1609.1,35.2L1609.1,35.2z" class="st1"/></g></g><g id="XMLID_1318_"><g id="XMLID_346_"><path id="XMLID_352_" d="M1617.9,87.3c5.9-0.8,11.9-1.6,17.8-2.3c3.1-0.4,3.2-5.4,0-5c-5.9,0.8-11.9,1.6-17.8,2.3 C1614.7,82.7,1614.7,87.7,1617.9,87.3L1617.9,87.3z" class="st1"/></g></g><g id="XMLID_1310_"><g id="XMLID_340_"><path id="XMLID_344_" d="M1608.7,116.7c6.2-0.9,12.5-1.9,18.7-2.8c3.2-0.5,1.8-5.3-1.3-4.8 c-6.2,0.9-12.5,1.9-18.7,2.8C1604.2,112.3,1605.6,117.2,1608.7,116.7L1608.7,116.7z" class="st1"/></g></g><g id="XMLID_1302_"><g id="XMLID_334_"><path id="XMLID_338_" d="M1585.7,81.4c7.5,6.2,14.9,12.4,22.4,18.5c2.5,2,6-1.5,3.5-3.5 c-7.5-6.2-14.9-12.4-22.4-18.5C1586.8,75.8,1583.2,79.4,1585.7,81.4L1585.7,81.4z" class="st1"/></g></g><g id="XMLID_1294_"><g id="XMLID_328_"><path id="XMLID_332_" d="M1585,62.9c6.1-5.8,12.1-11.7,18.2-17.5c2.3-2.2-1.2-5.8-3.5-3.5 c-6.1,5.8-12.1,11.7-18.2,17.5C1579.1,61.6,1582.7,65.1,1585,62.9L1585,62.9z" class="st1"/></g></g><g id="XMLID_1286_"><g id="XMLID_322_"><path id="XMLID_326_" d="M1580.8,13.5c-1.4,5.2-2.8,10.5-4.2,15.7c-0.8,3.1,4,4.4,4.8,1.3 c1.4-5.2,2.8-10.5,4.2-15.7C1586.5,11.8,1581.6,10.4,1580.8,13.5L1580.8,13.5z" class="st1"/></g></g><g id="XMLID_1278_"><g id="XMLID_316_"><path id="XMLID_320_" d="M1556.8,27.5c6.8,7.5,13.6,15,20.4,22.4c2.2,2.4,5.7-1.2,3.5-3.5 c-6.8-7.5-13.6-15-20.4-22.4C1558.2,21.6,1554.7,25.1,1556.8,27.5L1556.8,27.5z" class="st1"/></g></g><g id="XMLID_1270_"><g id="XMLID_310_"><path id="XMLID_314_" d="M1549.1,77.6c3.4-2,6.7-4,10.2-5.9c3.2-1.8,9.2-6.3,12.7-6.3c3.2,0,3.2-5,0-5 c-4.5,0-9.8,4-13.5,6c-4,2.2-8,4.5-11.9,6.9C1543.9,74.9,1546.4,79.3,1549.1,77.6L1549.1,77.6z" class="st1"/></g></g><g id="XMLID_1262_"><g id="XMLID_304_"><path id="XMLID_308_" d="M1572.3,73.3c0.5,8.9,0.9,17.8,1.4,26.7c0.2,3.2,5.2,3.2,5,0c-0.5-8.9-0.9-17.8-1.4-26.7 C1577.2,70.1,1572.2,70.1,1572.3,73.3L1572.3,73.3z" class="st1"/></g></g><g id="XMLID_1254_"><g id="XMLID_298_"><path id="XMLID_302_" d="M1557.9,122.3c5.9,1.1,11.8,2.2,17.6,3.3c3.1,0.6,4.5-4.2,1.3-4.8 c-5.9-1.1-11.8-2.2-17.6-3.3C1556.1,116.9,1554.8,121.7,1557.9,122.3L1557.9,122.3z" class="st1"/></g></g><g id="XMLID_1246_"><g id="XMLID_292_"><path id="XMLID_296_" d="M1596.5,109c-0.9,3.3-1.9,6.7-2.9,10c-0.8,2.4-1.6,4.8-2.6,7.2c-0.4,1-1,1.9-1.4,2.9 c-0.6,1.3-0.7,0.6-0.4,0.7c0.4,1.6,0.8,3.1,1.3,4.7c-1.6,0.9-0.5,0.2,0.6,0.2c0.7,0,1.5-0.1,2.2-0.1c1.2-0.1,2.3-0.1,3.5-0.2 c1.8-0.1,3.3-2.1,2.2-3.8c-4.4-6.7-0.2-13.6,2.3-20.1C1602.5,107.4,1597.7,106.1,1596.5,109c-3.1,7.9-7.2,15.8-1.8,23.9 c0.7-1.3,1.4-2.5,2.2-3.8c-2.6,0.1-6.5-0.4-8.9,0.9c-2.3,1.3-1,4.5,1.3,4.7c4.6,0.4,6.5-6.8,7.7-10.1c1.7-4.7,3.1-9.5,4.4-14.3 C1602.2,107.2,1597.4,105.9,1596.5,109z" class="st1"/></g></g></g><g id="XMLID_1156_"><g id="XMLID_1237_"><g id="XMLID_285_"><path id="XMLID_289_" d="M1288.9,175c-1.6-15.4-3.1-30.8-4.7-46.2c-0.8,0.8-1.7,1.7-2.5,2.5c18.5,0,37,0,55.5,0 c-0.8-1.1-1.6-2.1-2.4-3.2c-3,15.4-6.1,30.8-9.1,46.2c0.8-0.6,1.6-1.2,2.4-1.8c-6.8,0.1-13.6,0.1-20.3,0.1 c-7.4,0-14.7-1.1-22.1,0c-3.2,0.5-1.8,5.3,1.3,4.8c7.3-1.1,15,0.2,22.4,0.2c6.2,0,12.4,0,18.7-0.1c1,0,2.2-0.8,2.4-1.8 c3-15.4,6.1-30.8,9.1-46.2c0.3-1.6-0.7-3.2-2.4-3.2c-18.5,0-37,0-55.5,0c-1.3,0-2.6,1.1-2.5,2.5c1.6,15.4,3.1,30.8,4.7,46.2 C1284.3,178.2,1289.3,178.2,1288.9,175z" class="st0"/></g></g><g id="XMLID_1229_"><g id="XMLID_279_"><path id="XMLID_283_" d="M1285.6,169.6c16.3,0.3,32.6,0.6,48.9,0.9c3.2,0.1,3.2-4.9,0-5 c-16.3-0.3-32.6-0.6-48.9-0.9C1282.4,164.5,1282.4,169.5,1285.6,169.6L1285.6,169.6z" class="st0"/></g></g><g id="XMLID_1221_"><g id="XMLID_273_"><path id="XMLID_277_" d="M1289.7,162.3c15.5,0.4,30.9,0.8,46.4,1.2c3.2,0.1,3.2-4.9,0-5 c-15.5-0.4-30.9-0.8-46.4-1.2C1286.5,157.3,1286.5,162.3,1289.7,162.3L1289.7,162.3z" class="st0"/></g></g><g id="XMLID_1213_"><g id="XMLID_267_"><path id="XMLID_271_" d="M1292.3,154.4c16.3,0.6,32.7,1.2,49,1.9c3.2,0.1,3.2-4.9,0-5c-16.3-0.6-32.7-1.2-49-1.9 C1289.1,149.3,1289.1,154.3,1292.3,154.4L1292.3,154.4z" class="st0"/></g></g><g id="XMLID_1205_"><g id="XMLID_261_"><path id="XMLID_265_" d="M1293.4,145.5c15.6,0.6,31.1,1.2,46.7,1.9c3.2,0.1,3.2-4.9,0-5 c-15.6-0.6-31.1-1.2-46.7-1.9C1290.2,140.4,1290.2,145.4,1293.4,145.5L1293.4,145.5z" class="st0"/></g></g><g id="XMLID_1197_"><g id="XMLID_255_"><path id="XMLID_259_" d="M1296,138.5c15.9,0,31.9,0,47.8,0c3.2,0,3.2-5,0-5c-15.9,0-31.9,0-47.8,0 C1292.8,133.5,1292.7,138.5,1296,138.5L1296,138.5z" class="st0"/></g></g><g id="XMLID_1189_"><g id="XMLID_248_"><path id="XMLID_253_" d="M1310.8,126.7c-17.2-10.2-34.4-20.4-51.6-30.6c-1.5-0.9-3.1,0-3.7,1.5 c-1.9,5.2,0.2,11.4,3.3,15.6c10.8,14.6,34.3,16.8,50.7,18.1c3.2,0.3,3.2-4.7,0-5c-10.9-0.9-22-2.4-32.2-6.4 c-5.3-2.1-11-5-14.5-9.7c-2.5-3.3-3.7-7.9-2.5-11.3c-1.2,0.5-2.4,1-3.7,1.5c17.2,10.2,34.4,20.4,51.6,30.6 C1311.1,132.6,1313.6,128.3,1310.8,126.7z" class="st0"/></g></g><g id="XMLID_1181_"><g id="XMLID_241_"><path id="XMLID_246_" d="M1310.8,131c13-7.5,26-14.9,39-22.4c-1.1-0.3-2.3-0.6-3.4-0.9c-0.1-0.2,0.2,0.5,0.2,0.9 c-0.1,1.4-0.9,2.9-2.2,4.3c-2.9,3.1-7.2,5.1-11.1,6.7c-7.8,3.2-16.1,5.1-24.4,6.8c-3.2,0.6-1.8,5.5,1.3,4.8 c9.2-1.9,18.4-4.1,26.9-7.9c4.3-1.9,8.7-4.3,11.7-8c2.2-2.7,3.8-6.9,1.8-10.2c-0.7-1.2-2.2-1.6-3.4-0.9 c-13,7.5-26,14.9-39,22.4C1305.5,128.3,1308,132.6,1310.8,131z" class="st0"/></g></g><g id="XMLID_1173_"><g id="XMLID_231_"><path id="XMLID_235_" d="M1312,129.5c8.1-27.2,16.2-54.4,24.3-81.6c1.2-3.9,2.3-7.8,3.5-11.7 c-1.5,0.2-3,0.4-4.6,0.6c5.3,7.8,7.9,18.2,8.2,27.5c1,26.1-16,47.4-35.6,62.7c-2.5,2,1,5.5,3.5,3.5 c20.3-16,37.8-38.3,37.1-65.4c-0.3-10.5-3-22.2-9-31c-1.2-1.8-3.9-1.5-4.6,0.6c-8.1,27.2-16.2,54.4-24.3,81.6 c-1.2,3.9-2.3,7.8-3.5,11.7C1306.2,131.2,1311,132.6,1312,129.5z" class="st0"/></g></g><g id="XMLID_1165_"><g id="XMLID_223_"><path id="XMLID_227_" d="M1312,128.8c0.6-13.6,1.4-27.2,2.3-40.8c1.4-20.6,2.5-41.7,6.7-61.9 c0.3-1.6-0.7-3.1-2.4-3.2c-4.4-0.1-8.5,3.5-11,6.8c-8.7,11.7-8.6,29.4-8.1,43.2c0.7,19,3.8,37.9,7.6,56.5 c0.6,3.2,5.5,1.8,4.8-1.3c-5.1-25.1-10.5-52.7-6.4-78.4c1.2-7.4,3.7-17.5,10.6-21.1c0.3-0.2,1.3-0.2,2.1-0.7 c0.1-0.1-0.4,0,0.4,0c-0.8-1.1-1.6-2.1-2.4-3.2c-4.2,20.3-5.4,41.4-6.8,62.1c-1,14-1.8,27.9-2.4,41.9 C1306.9,132,1311.9,132,1312,128.8z" class="st0"/></g></g><g id="XMLID_1157_"><g id="XMLID_217_"><path id="XMLID_221_" d="M1312,128.2c-8-27.2-16-54.4-23.6-81.6c-1.5-5.3-3.2-10.7-4.2-16.1 c-0.3-1.8-3-2.5-4.2-1.1c-15.1,17.6-10.1,45.4-0.5,64.1c7.1,13.9,17.3,26.1,28.3,37.2c2.3,2.3,5.8-1.3,3.5-3.5 c-18.2-18.3-36.8-42.4-35.8-69.7c0.2-6.3,1.6-12.6,4.3-18.2c0.8-1.7,1.7-3.3,2.7-4.9c0.6-1,0.8-1.2,1-1.4 c-1.4-0.4-2.8-0.7-4.2-1.1c2.3,12.4,6.6,24.6,10,36.8c4.7,16.6,9.6,33.1,14.4,49.6c1.1,3.8,2.2,7.6,3.3,11.4 C1308,132.6,1312.9,131.2,1312,128.2z" class="st0"/></g></g></g><g id="XMLID_1043_"><g id="XMLID_1148_"><g id="XMLID_266_"><path id="XMLID_290_" d="M1397.4,134.7c7.1,0,14.6,0.8,21.7,0c2.5-0.3,5.3-1.5,5.4,2.2c0.1,2.9-1.4,6-2.1,8.8 c-0.7,2.9-1.4,5.8-2.2,8.7c-1.5,5.5-3.6,11.2-7.9,15.1c-5.6,5.2-14.1,6-21.3,4.8c-12-2.1-20.2-12.7-19.2-24.9 c0.3-3.3-0.9-9.2,1.6-11.7c2.9-2.8,10.7-1.7,14.5-2C1391.1,135.4,1394.3,135.1,1397.4,134.7c3.2-0.4,3.2-5.4,0-5 c-3.7,0.5-7.4,0.8-11.1,1.1c-4.5,0.4-10.4-0.5-14.5,1.9c-5,2.9-4.8,8.4-4.6,13.3c0.1,1.6,0.1-0.4-0.1,1.1 c-0.2,1.4-0.3,2.9-0.3,4.3c0,3.2,0.6,6.4,1.6,9.4c2.2,6.5,6.7,12.1,12.8,15.3c14.2,7.5,33.3,3.7,40.5-11.3 c3-6.2,4.3-13.1,6.1-19.7c1.3-5,3.9-12.9-2.5-15.5c-2.1-0.8-4.1-0.5-6.3-0.2c-1.3,0.2,0,0.1-0.5,0.1c-1,0.1-2.1,0-3.2,0 c-5.9,0-11.9,0-17.8,0C1394.2,129.7,1394.2,134.7,1397.4,134.7z" class="st1"/></g></g><g id="XMLID_1140_"><g id="XMLID_207_"><path id="XMLID_213_" d="M1410.1,131.7c1.3-20.1,3.6-40.7,9-60.1c1.4-5.2,5.4-22.1,13.4-20.8 c11.4,1.8,3.3,27.2,1.6,33.2c-4.6,16.3-11.3,31.9-17.7,47.6c0.8-0.6,1.6-1.2,2.4-1.8c-3.7-0.2-7.5-0.4-11.2-0.5 c-3.2-0.2-3.2,4.8,0,5c3.7,0.2,7.5,0.4,11.2,0.5c1.2,0.1,2-0.8,2.4-1.8c6.3-15.5,12.9-30.9,17.6-47.1 c2.8-9.7,9.6-30.6-1.2-38.2c-20.8-14.6-28.1,44.6-29.4,54c-1.4,10-2.5,20-3.1,30.1C1404.9,134.9,1409.9,134.9,1410.1,131.7z" class="st1"/></g></g><g id="XMLID_1132_"><g id="XMLID_200_"><path id="XMLID_205_" d="M1384.4,133c-2.2-10.9-3.9-22-5.2-33c-2.3-18.7-4.4-38.7-1.2-57.4c1-5.9,2.7-13.7,8-17.3 c4.3-3,8.5-1.3,11,3c3.7,6.4,4.5,14.6,5.1,21.7c0.9,9.8,0.8,19.7,0.5,29.5c-0.6,17.6-2.3,35.3-4.5,52.8 c0.8-0.8,1.7-1.7,2.5-2.5c-6.2,0.5-12.4,0.9-18.6,1.4c-3.2,0.2-3.2,5.2,0,5c6.2-0.5,12.4-0.9,18.6-1.4c1.5-0.1,2.3-1.1,2.5-2.5 c2.1-16.7,3.7-33.4,4.4-50.2c0.4-10.7,0.6-21.4-0.4-32.1c-0.7-7.9-1.7-16.4-5.4-23.5c-2.6-5-7.2-8.6-13.1-7.5 c-6.4,1.2-10.4,6.6-12.7,12.4c-3.2,8.2-4,17.4-4.2,26.1c-0.3,10.7,0.3,21.5,1.4,32.1c1.5,15,3.6,30.1,6.6,44.9 C1380.2,137.5,1385,136.1,1384.4,133z" class="st1"/></g></g><g id="XMLID_1124_"><g id="XMLID_192_"><path id="XMLID_197_" d="M1419.7,35.2c0.6,11.4,1.2,22.9,1.8,34.3c0.2,3.2,5.2,3.2,5,0 c-0.6-11.4-1.2-22.9-1.8-34.3C1424.6,32,1419.6,32,1419.7,35.2L1419.7,35.2z" class="st1"/></g></g><g id="XMLID_1116_"><g id="XMLID_185_"><path id="XMLID_190_" d="M1428.5,87.3c5.9-0.8,11.9-1.6,17.8-2.3c3.1-0.4,3.2-5.4,0-5c-5.9,0.8-11.9,1.6-17.8,2.3 C1425.4,82.7,1425.4,87.7,1428.5,87.3L1428.5,87.3z" class="st1"/></g></g><g id="XMLID_1108_"><g id="XMLID_179_"><path id="XMLID_183_" d="M1419.4,116.7c6.2-0.9,12.5-1.9,18.7-2.8c3.2-0.5,1.8-5.3-1.3-4.8 c-6.2,0.9-12.5,1.9-18.7,2.8C1414.9,112.3,1416.3,117.2,1419.4,116.7L1419.4,116.7z" class="st1"/></g></g><g id="XMLID_1100_"><g id="XMLID_173_"><path id="XMLID_177_" d="M1396.4,81.4c7.5,6.2,14.9,12.4,22.4,18.5c2.5,2,6-1.5,3.5-3.5 c-7.5-6.2-14.9-12.4-22.4-18.5C1397.5,75.8,1393.9,79.4,1396.4,81.4L1396.4,81.4z" class="st1"/></g></g><g id="XMLID_1092_"><g id="XMLID_167_"><path id="XMLID_171_" d="M1395.7,62.9c6.1-5.8,12.1-11.7,18.2-17.5c2.3-2.2-1.2-5.8-3.5-3.5 c-6.1,5.8-12.1,11.7-18.2,17.5C1389.8,61.6,1393.4,65.1,1395.7,62.9L1395.7,62.9z" class="st1"/></g></g><g id="XMLID_1084_"><g id="XMLID_161_"><path id="XMLID_165_" d="M1391.5,13.5c-1.4,5.2-2.8,10.5-4.2,15.7c-0.8,3.1,4,4.4,4.8,1.3 c1.4-5.2,2.8-10.5,4.2-15.7C1397.2,11.8,1392.3,10.4,1391.5,13.5L1391.5,13.5z" class="st1"/></g></g><g id="XMLID_1076_"><g id="XMLID_148_"><path id="XMLID_159_" d="M1367.5,27.5c6.8,7.5,13.6,15,20.4,22.4c2.2,2.4,5.7-1.2,3.5-3.5 c-6.8-7.5-13.6-15-20.4-22.4C1368.9,21.6,1365.3,25.1,1367.5,27.5L1367.5,27.5z" class="st1"/></g></g><g id="XMLID_1068_"><g id="XMLID_141_"><path id="XMLID_145_" d="M1359.8,77.6c3.4-2,6.7-4,10.2-5.9c3.2-1.8,9.2-6.3,12.7-6.3c3.2,0,3.2-5,0-5 c-4.5,0-9.8,4-13.5,6c-4,2.2-8,4.5-11.9,6.9C1354.6,74.9,1357.1,79.3,1359.8,77.6L1359.8,77.6z" class="st1"/></g></g><g id="XMLID_1060_"><g id="XMLID_133_"><path id="XMLID_138_" d="M1383,73.3c0.5,8.9,0.9,17.8,1.4,26.7c0.2,3.2,5.2,3.2,5,0c-0.5-8.9-0.9-17.8-1.4-26.7 C1387.8,70.1,1382.8,70.1,1383,73.3L1383,73.3z" class="st1"/></g></g><g id="XMLID_1052_"><g id="XMLID_126_"><path id="XMLID_131_" d="M1368.6,122.3c5.9,1.1,11.8,2.2,17.6,3.3c3.1,0.6,4.5-4.2,1.3-4.8 c-5.9-1.1-11.8-2.2-17.6-3.3C1366.8,116.9,1365.4,121.7,1368.6,122.3L1368.6,122.3z" class="st1"/></g></g><g id="XMLID_1044_"><g id="XMLID_120_"><path id="XMLID_124_" d="M1407.2,109c-0.9,3.3-1.9,6.7-2.9,10c-0.8,2.4-1.6,4.8-2.6,7.2c-0.4,1-1,1.9-1.4,2.9 c-0.6,1.3-0.7,0.6-0.4,0.7c0.4,1.6,0.8,3.1,1.3,4.7c-1.6,0.9-0.5,0.2,0.6,0.2c0.7,0,1.5-0.1,2.2-0.1c1.2-0.1,2.3-0.1,3.5-0.2 c1.8-0.1,3.3-2.1,2.2-3.8c-4.4-6.7-0.2-13.6,2.3-20.1C1413.2,107.4,1408.4,106.1,1407.2,109c-3.1,7.9-7.2,15.8-1.8,23.9 c0.7-1.3,1.4-2.5,2.2-3.8c-2.6,0.1-6.5-0.4-8.9,0.9c-2.3,1.3-1,4.5,1.3,4.7c4.6,0.4,6.5-6.8,7.7-10.1c1.7-4.7,3.1-9.5,4.4-14.3 C1412.9,107.2,1408,105.9,1407.2,109z" class="st1"/></g></g></g><g id="XMLID_942_"><g id="XMLID_1035_"><g id="XMLID_114_"><path id="XMLID_118_" d="M1176.6,130c7.9-0.8,15.8-1.4,23.7-1.8c10.1-0.6,21.1-1.8,31.2,0.1 c-0.6-1-1.2-2.1-1.7-3.1c-1.2,7.9-2.3,15.8-3.3,23.7c-0.7,5.4-1.4,10.9-1.8,16.4c-0.2,2.8-0.9,6.3,0.3,9 c0.7-1.3,1.4-2.5,2.2-3.8c-14.6,0.4-29.6,0.2-44.1,2.1c0.8,0.8,1.7,1.7,2.5,2.5c-2.1-15.9-4.4-31.7-6.3-47.6 c-0.4-3.2-5.4-3.2-5,0c1.8,15.9,4.2,31.7,6.3,47.6c0.2,1.2,1,2.7,2.5,2.5c14.5-1.9,29.5-1.7,44.1-2.1c2-0.1,2.9-2,2.2-3.8 c0.3,0.6,0.1-1.8,0.1-2.4c0.1-1.9,0.2-3.8,0.4-5.7c0.5-5.3,1.1-10.5,1.8-15.8c0.9-7.1,1.9-14.2,3-21.3c0.2-1.2-0.3-2.8-1.7-3.1 c-9.9-1.8-20.6-0.9-30.6-0.4c-8.5,0.5-17.1,1.1-25.6,1.9C1173.4,125.3,1173.4,130.3,1176.6,130z" class="st1"/></g></g><g id="XMLID_1027_"><g id="XMLID_108_"><path id="XMLID_112_" d="M1198.8,89.7c0.6,11.9,1.3,23.9,1.9,35.8c0.2,3.2,5.2,3.2,5,0 c-0.6-11.9-1.3-23.9-1.9-35.8C1203.6,86.5,1198.6,86.5,1198.8,89.7L1198.8,89.7z" class="st1"/></g></g><g id="XMLID_1010_"><g id="XMLID_1019_"><g id="XMLID_102_"><path id="XMLID_106_" d="M1244.9,106.5c-12.4-7.1-29.4-13.9-43.7-9.7c-1.9,0.5-2.3,2.8-1.1,4.2 c11.3,12.6,30.8,23,45.3,9.5c2.4-2.2-1.2-5.7-3.5-3.5c-12.3,11.5-29,0.9-38.3-9.5c-0.4,1.4-0.7,2.8-1.1,4.2 c13-3.8,28.6,2.8,39.9,9.2C1245.2,112.5,1247.7,108.1,1244.9,106.5z" class="st1"/></g></g><g id="XMLID_1011_"><g id="XMLID_96_"><path id="XMLID_100_" d="M1238.8,107.4c-11.9-3.5-23.8-7.1-35.8-10.6c-3.1-0.9-4.4,3.9-1.3,4.8 c11.9,3.5,23.8,7.1,35.8,10.6C1240.5,113.2,1241.9,108.4,1238.8,107.4L1238.8,107.4z" class="st1"/></g></g></g><g id="XMLID_993_"><g id="XMLID_1002_"><g id="XMLID_90_"><path id="XMLID_94_" d="M1160.4,105.8c12-4.6,28.6-9,40.8-3.3c-0.2-1.3-0.3-2.6-0.5-3.9 c-10.9,9-28.8,16.3-39.2,3.1c-2-2.5-5.5,1-3.5,3.5c12.3,15.6,33.4,7.6,46.3-3.1c1.2-1,0.9-3.3-0.5-3.9 c-13.6-6.3-31.3-2.3-44.7,2.8C1156.1,102.1,1157.4,106.9,1160.4,105.8z" class="st1"/></g></g><g id="XMLID_994_"><g id="XMLID_84_"><path id="XMLID_88_" d="M1165,107.8c12.5-1.7,25-3.4,37.5-5c3.1-0.4,3.2-5.4,0-5c-12.5,1.7-25,3.4-37.5,5 C1161.9,103.2,1161.9,108.2,1165,107.8L1165,107.8z" class="st1"/></g></g></g><g id="XMLID_976_"><g id="XMLID_985_"><g id="XMLID_78_"><path id="XMLID_82_" d="M1204.2,100.5c5.1-21.9,18.9-44.1,38.9-54.9c-1.3-0.7-2.5-1.4-3.8-2.2 c0.5,7.7-0.8,15.8-3.3,23.1c-5.4,16.4-18.1,27.4-35,30.9c-3.1,0.7-1.8,5.5,1.3,4.8c17.7-3.7,31.2-15.1,37.6-32 c3.1-8.3,4.9-17.9,4.3-26.9c-0.1-1.9-2-3.1-3.8-2.2c-21,11.4-35.8,34.9-41.2,57.9C1198.7,102.3,1203.5,103.6,1204.2,100.5z" class="st1"/></g></g><g id="XMLID_977_"><g id="XMLID_72_"><path id="XMLID_76_" d="M1203.6,101.6c6.3-7.5,12.3-15.1,18.3-22.9c8.2-10.7,17.6-22,22.4-34.7 c1.2-3-3.7-4.3-4.8-1.3c-4.7,12.2-14.1,23.2-21.9,33.5c-5.7,7.4-11.5,14.7-17.5,21.9C1198,100.5,1201.5,104,1203.6,101.6 L1203.6,101.6z" class="st1"/></g></g></g><g id="XMLID_959_"><g id="XMLID_968_"><g id="XMLID_66_"><path id="XMLID_70_" d="M1203.6,99.1c-5.4-23.1-20.2-46.5-41.2-57.9c-1.7-0.9-3.6,0.3-3.8,2.2 c-0.6,8.9,1.1,18.5,4.3,26.9c6.4,16.9,19.9,28.3,37.6,32c3.1,0.7,4.5-4.2,1.3-4.8c-16.9-3.6-29.6-14.5-35-30.9 c-2.4-7.3-3.8-15.4-3.3-23.1c-1.3,0.7-2.5,1.4-3.8,2.2c20,10.8,33.8,33.1,38.9,54.9C1199.5,103.6,1204.3,102.3,1203.6,99.1z" class="st1"/></g></g><g id="XMLID_960_"><g id="XMLID_60_"><path id="XMLID_64_" d="M1202.9,98c-6-7.2-11.8-14.5-17.5-21.9c-7.8-10.3-17.2-21.3-21.9-33.5 c-1.1-3-6-1.7-4.8,1.3c4.9,12.7,14.3,24,22.4,34.7c5.9,7.8,12,15.4,18.3,22.9C1201.5,104,1205,100.5,1202.9,98L1202.9,98z" class="st1"/></g></g></g><g id="XMLID_951_"><g id="XMLID_54_"><path id="XMLID_58_" d="M1196.3,11.7c-15.1,26.1-15.7,60.6,3.4,84.6c1,1.3,3.2,0.7,3.9-0.5 c16-25.9,18.9-61.6-3.4-84.6c-2.2-2.3-5.8,1.2-3.5,3.5c20.8,21.4,17.5,54.6,2.7,78.6c1.3-0.2,2.6-0.3,3.9-0.5 c-17.7-22.2-16.6-54.6-2.7-78.6C1202.3,11.4,1197.9,8.9,1196.3,11.7z" class="st1"/></g></g><g id="XMLID_943_"><g id="XMLID_48_"><path id="XMLID_52_" d="M1196,12.9c0.9,25.6,1.9,51.2,2.8,76.8c0.1,3.2,5.1,3.2,5,0c-0.9-25.6-1.9-51.2-2.8-76.8 C1200.9,9.7,1195.9,9.7,1196,12.9L1196,12.9z" class="st1"/></g></g></g><g id="XMLID_37_"><g id="XMLID_1849_"><path id="XMLID_1854_" d="M0,179.8c17.2,0,34.5,0,51.7,0c46.5,0,93,0,139.4,0c68.9,0,137.8,0,206.7,0 c84.1,0,168.2,0,252.2,0c91.8,0,183.5,0,275.3,0c93.3,0,186.5,0,279.8,0c86.4,0,172.7,0,259.1,0c73.2,0,146.5,0,219.7,0 c52.7,0,105.3,0,158,0c24.9,0,49.8,0.3,74.7,0c1.1,0,2.2,0,3.3,0c3.2,0,3.2-5,0-5c-17.2,0-34.5,0-51.7,0c-46.5,0-93,0-139.4,0 c-68.9,0-137.8,0-206.7,0c-84.1,0-168.2,0-252.2,0c-91.8,0-183.5,0-275.3,0c-93.3,0-186.5,0-279.8,0c-86.4,0-172.7,0-259.1,0 c-73.2,0-146.5,0-219.7,0c-52.7,0-105.3,0-158,0c-24.9,0-49.8-0.3-74.7,0c-1.1,0-2.2,0-3.3,0C-3.2,174.8-3.2,179.8,0,179.8 L0,179.8z" class="st0"/></g></g></g></switch></svg>